<mxfile host="app.diagrams.net" modified="2023-05-29T14:06:10.695Z" agent="Mozilla/5.0 (Macintosh; Intel Mac OS X 10_15_7) AppleWebKit/537.36 (KHTML, like Gecko) Chrome/113.0.0.0 Safari/537.36" etag="-93L0wKbt8EB6WeLrmpO" version="21.3.5" type="github">
  <diagram id="3228e29e-7158-1315-38df-8450db1d8a1d" name="Page-1">
    <mxGraphModel dx="2612" dy="538" grid="0" gridSize="10" guides="1" tooltips="1" connect="1" arrows="1" fold="1" page="1" pageScale="1" pageWidth="1600" pageHeight="1000" background="#EFF1F3" math="0" shadow="0">
      <root>
        <mxCell id="0" />
        <mxCell id="1" parent="0" />
        <mxCell id="bSfmG82wzuLzx5gB0u1h-13" value="" style="rounded=1;whiteSpace=wrap;html=1;fillColor=none;strokeWidth=10;dashed=1;strokeColor=#535E80;fontColor=#535E80;" parent="1" vertex="1">
          <mxGeometry x="90" y="1651" width="1426" height="305" as="geometry" />
        </mxCell>
        <mxCell id="bSfmG82wzuLzx5gB0u1h-8" value="" style="rounded=1;whiteSpace=wrap;html=1;fillColor=none;strokeWidth=10;dashed=1;strokeColor=#4A919B;" parent="1" vertex="1">
          <mxGeometry x="84.5" y="1043" width="1426" height="305" as="geometry" />
        </mxCell>
        <mxCell id="bSfmG82wzuLzx5gB0u1h-1" value="&lt;font color=&quot;#ffffff&quot; style=&quot;font-size: 48px;&quot;&gt;铃铛&lt;/font&gt;" style="rounded=1;whiteSpace=wrap;html=1;fillColor=#4A919B;strokeColor=none;fontSize=48;" parent="1" vertex="1">
          <mxGeometry x="226.5" y="1176" width="228" height="118" as="geometry" />
        </mxCell>
        <mxCell id="bSfmG82wzuLzx5gB0u1h-2" value="&lt;font color=&quot;#ffffff&quot; style=&quot;font-size: 48px;&quot;&gt;叫名字&lt;/font&gt;" style="rounded=1;whiteSpace=wrap;html=1;fillColor=#4A919B;strokeColor=none;fontSize=48;" parent="1" vertex="1">
          <mxGeometry x="531.5" y="1176" width="228" height="118" as="geometry" />
        </mxCell>
        <mxCell id="bSfmG82wzuLzx5gB0u1h-3" value="&lt;font color=&quot;#ffffff&quot; style=&quot;font-size: 48px;&quot;&gt;扔飞盘&lt;/font&gt;" style="rounded=1;whiteSpace=wrap;html=1;fillColor=#4A919B;strokeColor=none;fontSize=48;" parent="1" vertex="1">
          <mxGeometry x="836.5" y="1174" width="228" height="118" as="geometry" />
        </mxCell>
        <mxCell id="bSfmG82wzuLzx5gB0u1h-4" value="&lt;font color=&quot;#ffffff&quot; style=&quot;font-size: 48px;&quot;&gt;叫伸手&lt;/font&gt;" style="rounded=1;whiteSpace=wrap;html=1;fillColor=#4A919B;strokeColor=none;fontSize=48;" parent="1" vertex="1">
          <mxGeometry x="1141.5" y="1176" width="228" height="118" as="geometry" />
        </mxCell>
        <mxCell id="bSfmG82wzuLzx5gB0u1h-5" value="&lt;font color=&quot;#ffffff&quot; style=&quot;font-size: 48px;&quot;&gt;流口水&lt;/font&gt;" style="rounded=1;whiteSpace=wrap;html=1;fillColor=#535E80;strokeColor=none;fontSize=48;" parent="1" vertex="1">
          <mxGeometry x="370.5" y="1689" width="228" height="118" as="geometry" />
        </mxCell>
        <mxCell id="bSfmG82wzuLzx5gB0u1h-6" value="&lt;font color=&quot;#ffffff&quot; style=&quot;font-size: 48px;&quot;&gt;&lt;span style=&quot;font-size: 48px;&quot;&gt;坐下&lt;/span&gt;&lt;/font&gt;" style="rounded=1;whiteSpace=wrap;html=1;fillColor=#535E80;strokeColor=none;fontSize=48;" parent="1" vertex="1">
          <mxGeometry x="683.5" y="1689" width="228" height="118" as="geometry" />
        </mxCell>
        <mxCell id="bSfmG82wzuLzx5gB0u1h-7" value="&lt;font color=&quot;#ffffff&quot; style=&quot;font-size: 48px;&quot;&gt;&lt;span style=&quot;font-size: 48px;&quot;&gt;伸手&lt;/span&gt;&lt;/font&gt;" style="rounded=1;whiteSpace=wrap;html=1;fillColor=#535E80;strokeColor=none;fontSize=48;" parent="1" vertex="1">
          <mxGeometry x="996.5" y="1689" width="228" height="118" as="geometry" />
        </mxCell>
        <mxCell id="bSfmG82wzuLzx5gB0u1h-10" value="&lt;font style=&quot;font-size: 81px;&quot;&gt;input&lt;/font&gt;" style="text;html=1;strokeColor=none;fillColor=none;align=center;verticalAlign=middle;whiteSpace=wrap;rounded=0;fontColor=#4A919B;fontStyle=1" parent="1" vertex="1">
          <mxGeometry x="677.5" y="1057" width="239" height="90" as="geometry" />
        </mxCell>
        <mxCell id="bSfmG82wzuLzx5gB0u1h-14" value="&lt;font style=&quot;font-size: 81px;&quot;&gt;output&lt;/font&gt;" style="text;html=1;strokeColor=none;fillColor=none;align=center;verticalAlign=middle;whiteSpace=wrap;rounded=0;fontColor=#535E80;fontStyle=1" parent="1" vertex="1">
          <mxGeometry x="678" y="1844" width="239" height="90" as="geometry" />
        </mxCell>
        <mxCell id="bSfmG82wzuLzx5gB0u1h-15" value="" style="shape=image;verticalLabelPosition=bottom;labelBackgroundColor=default;verticalAlign=top;aspect=fixed;imageAspect=0;image=data:image/svg+xml,PHN2ZyB4bWxucz0iaHR0cDovL3d3dy53My5vcmcvMjAwMC9zdmciIGhlaWdodD0iNTAwIiB3aWR0aD0iNTAwIiB2aWV3Qm94PSIwIDAgNTAwIDUwMCIgdmVyc2lvbj0iMS4yIj4mI3hhOwk8dGl0bGU+NzI0OTY2Ml8zMTA1MC1haTwvdGl0bGU+JiN4YTsJPGRlZnM+JiN4YTsJCTxsaW5lYXJHcmFkaWVudCBncmFkaWVudFVuaXRzPSJ1c2VyU3BhY2VPblVzZSIgeTI9IjMxOC45IiB4Mj0iMTUyIiB5MT0iMzE4LjkiIHgxPSIxMTIuNSIgaWQ9ImcxIj4mI3hhOwkJCTxzdG9wIHN0b3AtY29sb3I9IiNmZmI4NTAiIG9mZnNldD0iMCIvPiYjeGE7CQkJPHN0b3Agc3RvcC1jb2xvcj0iI2ZmODYyYyIgb2Zmc2V0PSIxIi8+JiN4YTsJCTwvbGluZWFyR3JhZGllbnQ+JiN4YTsJCTxsaW5lYXJHcmFkaWVudCBncmFkaWVudFVuaXRzPSJ1c2VyU3BhY2VPblVzZSIgeTI9IjI2NC42IiB4Mj0iMTMzLjciIHkxPSIyNjQuNiIgeDE9Ijk0LjIiIGlkPSJnMiI+JiN4YTsJCQk8c3RvcCBzdG9wLWNvbG9yPSIjZmZiODUwIiBvZmZzZXQ9IjAiLz4mI3hhOwkJCTxzdG9wIHN0b3AtY29sb3I9IiNmZjg2MmMiIG9mZnNldD0iMSIvPiYjeGE7CQk8L2xpbmVhckdyYWRpZW50PiYjeGE7CQk8bGluZWFyR3JhZGllbnQgZ3JhZGllbnRVbml0cz0idXNlclNwYWNlT25Vc2UiIHkyPSIzMTcuNSIgeDI9IjM4NS41IiB5MT0iMzE3LjUiIHgxPSIzNDUuOSIgaWQ9ImczIj4mI3hhOwkJCTxzdG9wIHN0b3AtY29sb3I9IiNlM2I3ZmYiIG9mZnNldD0iLjAwNSIvPiYjeGE7CQkJPHN0b3Agc3RvcC1jb2xvcj0iI2NjOWNmMiIgb2Zmc2V0PSIxIi8+JiN4YTsJCTwvbGluZWFyR3JhZGllbnQ+JiN4YTsJCTxsaW5lYXJHcmFkaWVudCBncmFkaWVudFVuaXRzPSJ1c2VyU3BhY2VPblVzZSIgeTI9IjE2NC44IiB4Mj0iNDA3LjMiIHkxPSIxNjQuOCIgeDE9IjU5LjIiIGlkPSJnNCI+JiN4YTsJCQk8c3RvcCBzdG9wLWNvbG9yPSIjZTNiN2ZmIiBvZmZzZXQ9Ii4wMDUiLz4mI3hhOwkJCTxzdG9wIHN0b3AtY29sb3I9IiNjYzljZjIiIG9mZnNldD0iMSIvPiYjeGE7CQk8L2xpbmVhckdyYWRpZW50PiYjeGE7CQk8bGluZWFyR3JhZGllbnQgZ3JhZGllbnRVbml0cz0idXNlclNwYWNlT25Vc2UiIHkyPSIxNzkuMyIgeDI9IjM5OS43IiB5MT0iMTc5LjMiIHgxPSI4My44IiBpZD0iZzUiPiYjeGE7CQkJPHN0b3Agc3RvcC1jb2xvcj0iI2UzYjdmZiIgb2Zmc2V0PSIuMDA1Ii8+JiN4YTsJCQk8c3RvcCBzdG9wLWNvbG9yPSIjY2M5Y2YyIiBvZmZzZXQ9IjEiLz4mI3hhOwkJPC9saW5lYXJHcmFkaWVudD4mI3hhOwkJPGxpbmVhckdyYWRpZW50IGdyYWRpZW50VW5pdHM9InVzZXJTcGFjZU9uVXNlIiB5Mj0iMjEyLjMiIHgyPSIzNzIuMyIgeTE9IjIxMi4zIiB4MT0iOTMuNyIgaWQ9Imc2Ij4mI3hhOwkJCTxzdG9wIHN0b3AtY29sb3I9IiNmZmI4NTAiIG9mZnNldD0iMCIvPiYjeGE7CQkJPHN0b3Agc3RvcC1jb2xvcj0iI2ZmODYyYyIgb2Zmc2V0PSIxIi8+JiN4YTsJCTwvbGluZWFyR3JhZGllbnQ+JiN4YTsJCTxsaW5lYXJHcmFkaWVudCBncmFkaWVudFVuaXRzPSJ1c2VyU3BhY2VPblVzZSIgeTI9IjE1OC40IiB4Mj0iNDI4LjQiIHkxPSIxNTguNCIgeDE9IjEwOC41IiBpZD0iZzciPiYjeGE7CQkJPHN0b3Agc3RvcC1jb2xvcj0iI2UzYjdmZiIgb2Zmc2V0PSIuMDA1Ii8+JiN4YTsJCQk8c3RvcCBzdG9wLWNvbG9yPSIjY2M5Y2YyIiBvZmZzZXQ9IjEiLz4mI3hhOwkJPC9saW5lYXJHcmFkaWVudD4mI3hhOwkJPGxpbmVhckdyYWRpZW50IGdyYWRpZW50VW5pdHM9InVzZXJTcGFjZU9uVXNlIiB5Mj0iMTkyLjEiIHgyPSIzNjguMyIgeTE9IjE5Mi4xIiB4MT0iMTAyLjQiIGlkPSJnOCI+JiN4YTsJCQk8c3RvcCBzdG9wLWNvbG9yPSIjZmZiODUwIiBvZmZzZXQ9IjAiLz4mI3hhOwkJCTxzdG9wIHN0b3AtY29sb3I9IiNmZjg2MmMiIG9mZnNldD0iMSIvPiYjeGE7CQk8L2xpbmVhckdyYWRpZW50PiYjeGE7CQk8bGluZWFyR3JhZGllbnQgZ3JhZGllbnRVbml0cz0idXNlclNwYWNlT25Vc2UiIHkyPSIxODYuOSIgeDI9IjM5MS40IiB5MT0iMTg2LjkiIHgxPSI3OC45IiBpZD0iZzkiPiYjeGE7CQkJPHN0b3Agc3RvcC1jb2xvcj0iI2UzYjdmZiIgb2Zmc2V0PSIuMDA1Ii8+JiN4YTsJCQk8c3RvcCBzdG9wLWNvbG9yPSIjY2M5Y2YyIiBvZmZzZXQ9IjEiLz4mI3hhOwkJPC9saW5lYXJHcmFkaWVudD4mI3hhOwkJPGxpbmVhckdyYWRpZW50IGdyYWRpZW50VW5pdHM9InVzZXJTcGFjZU9uVXNlIiB5Mj0iMTk2LjciIHgyPSIzOTUuNCIgeTE9IjE5Ni43IiB4MT0iODEuNSIgaWQ9ImcxMCI+JiN4YTsJCQk8c3RvcCBzdG9wLWNvbG9yPSIjZTNiN2ZmIiBvZmZzZXQ9Ii4wMDUiLz4mI3hhOwkJCTxzdG9wIHN0b3AtY29sb3I9IiNjYzljZjIiIG9mZnNldD0iMSIvPiYjeGE7CQk8L2xpbmVhckdyYWRpZW50PiYjeGE7CQk8bGluZWFyR3JhZGllbnQgZ3JhZGllbnRVbml0cz0idXNlclNwYWNlT25Vc2UiIHkyPSIxNzEuNyIgeDI9IjQxNiIgeTE9IjE3MS43IiB4MT0iODMuMSIgaWQ9ImcxMSI+JiN4YTsJCQk8c3RvcCBzdG9wLWNvbG9yPSIjZmZiODUwIiBvZmZzZXQ9IjAiLz4mI3hhOwkJCTxzdG9wIHN0b3AtY29sb3I9IiNmZjg2MmMiIG9mZnNldD0iMSIvPiYjeGE7CQk8L2xpbmVhckdyYWRpZW50PiYjeGE7CQk8bGluZWFyR3JhZGllbnQgZ3JhZGllbnRVbml0cz0idXNlclNwYWNlT25Vc2UiIHkyPSIxNzQiIHgyPSI0NDEuMyIgeTE9IjE3NCIgeDE9IjEwMy4zIiBpZD0iZzEyIj4mI3hhOwkJCTxzdG9wIHN0b3AtY29sb3I9IiNlM2I3ZmYiIG9mZnNldD0iLjAwNSIvPiYjeGE7CQkJPHN0b3Agc3RvcC1jb2xvcj0iI2NjOWNmMiIgb2Zmc2V0PSIxIi8+JiN4YTsJCTwvbGluZWFyR3JhZGllbnQ+JiN4YTsJCTxsaW5lYXJHcmFkaWVudCBncmFkaWVudFVuaXRzPSJ1c2VyU3BhY2VPblVzZSIgeTI9IjE5NC44IiB4Mj0iNDI0LjQiIHkxPSIxOTQuOCIgeDE9IjE0NS45IiBpZD0iZzEzIj4mI3hhOwkJCTxzdG9wIHN0b3AtY29sb3I9IiNlM2I3ZmYiIG9mZnNldD0iLjAwNSIvPiYjeGE7CQkJPHN0b3Agc3RvcC1jb2xvcj0iI2NjOWNmMiIgb2Zmc2V0PSIxIi8+JiN4YTsJCTwvbGluZWFyR3JhZGllbnQ+JiN4YTsJCTxsaW5lYXJHcmFkaWVudCBncmFkaWVudFVuaXRzPSJ1c2VyU3BhY2VPblVzZSIgeTI9IjE4MCIgeDI9IjQzMi4zIiB5MT0iMTgwIiB4MT0iMTAxLjIiIGlkPSJnMTQiPiYjeGE7CQkJPHN0b3Agc3RvcC1jb2xvcj0iI2ZmYjg1MCIgb2Zmc2V0PSIwIi8+JiN4YTsJCQk8c3RvcCBzdG9wLWNvbG9yPSIjZmY4NjJjIiBvZmZzZXQ9IjEiLz4mI3hhOwkJPC9saW5lYXJHcmFkaWVudD4mI3hhOwkJPGxpbmVhckdyYWRpZW50IGdyYWRpZW50VW5pdHM9InVzZXJTcGFjZU9uVXNlIiB5Mj0iMTkxLjEiIHgyPSIzOTkuNyIgeTE9IjE5MS4xIiB4MT0iMTEyLjYiIGlkPSJnMTUiPiYjeGE7CQkJPHN0b3Agc3RvcC1jb2xvcj0iI2ZmYjg1MCIgb2Zmc2V0PSIwIi8+JiN4YTsJCQk8c3RvcCBzdG9wLWNvbG9yPSIjZmY4NjJjIiBvZmZzZXQ9IjEiLz4mI3hhOwkJPC9saW5lYXJHcmFkaWVudD4mI3hhOwkJPGxpbmVhckdyYWRpZW50IGdyYWRpZW50VW5pdHM9InVzZXJTcGFjZU9uVXNlIiB5Mj0iMTU1LjMiIHgyPSIzODguOCIgeTE9IjE1NS4zIiB4MT0iNzcuMiIgaWQ9ImcxNiI+JiN4YTsJCQk8c3RvcCBzdG9wLWNvbG9yPSIjZmZiODUwIiBvZmZzZXQ9IjAiLz4mI3hhOwkJCTxzdG9wIHN0b3AtY29sb3I9IiNmZjg2MmMiIG9mZnNldD0iMSIvPiYjeGE7CQk8L2xpbmVhckdyYWRpZW50PiYjeGE7CQk8bGluZWFyR3JhZGllbnQgZ3JhZGllbnRVbml0cz0idXNlclNwYWNlT25Vc2UiIHkyPSIyMTguNyIgeDI9IjQwOC41IiB5MT0iMjE4LjciIHgxPSIzNzcuNyIgaWQ9ImcxNyI+JiN4YTsJCQk8c3RvcCBzdG9wLWNvbG9yPSIjZTNiN2ZmIiBvZmZzZXQ9Ii4wMDUiLz4mI3hhOwkJCTxzdG9wIHN0b3AtY29sb3I9IiNjYzljZjIiIG9mZnNldD0iMSIvPiYjeGE7CQk8L2xpbmVhckdyYWRpZW50PiYjeGE7CQk8bGluZWFyR3JhZGllbnQgZ3JhZGllbnRVbml0cz0idXNlclNwYWNlT25Vc2UiIHkyPSIyNTcuNyIgeDI9IjM2MC4yIiB5MT0iMzIxLjIiIHgxPSIyNTAuMyIgaWQ9ImcxOCI+JiN4YTsJCQk8c3RvcCBzdG9wLWNvbG9yPSIjM2EyYmFhIiBvZmZzZXQ9IjAiLz4mI3hhOwkJCTxzdG9wIHN0b3AtY29sb3I9IiMyZjE3ODQiIG9mZnNldD0iMSIvPiYjeGE7CQk8L2xpbmVhckdyYWRpZW50PiYjeGE7CQk8bGluZWFyR3JhZGllbnQgZ3JhZGllbnRVbml0cz0idXNlclNwYWNlT25Vc2UiIHkyPSIzMDQuOCIgeDI9IjI0NS44IiB5MT0iMzA0LjgiIHgxPSIxNDkuMiIgaWQ9ImcxOSI+JiN4YTsJCQk8c3RvcCBzdG9wLWNvbG9yPSIjNGI0MmM2IiBvZmZzZXQ9IjAiLz4mI3hhOwkJCTxzdG9wIHN0b3AtY29sb3I9IiM0MjMyYjIiIG9mZnNldD0iMSIvPiYjeGE7CQk8L2xpbmVhckdyYWRpZW50PiYjeGE7CQk8bGluZWFyR3JhZGllbnQgZ3JhZGllbnRVbml0cz0idXNlclNwYWNlT25Vc2UiIHkyPSIyNzQuNCIgeDI9IjEwNS42IiB5MT0iMzc0LjYiIHgxPSIzMzciIGlkPSJnMjAiPiYjeGE7CQkJPHN0b3Agc3RvcC1jb2xvcj0iIzRiNDJjNiIgb2Zmc2V0PSIwIi8+JiN4YTsJCQk8c3RvcCBzdG9wLWNvbG9yPSIjNTQ1NGQ2IiBvZmZzZXQ9IjEiLz4mI3hhOwkJPC9saW5lYXJHcmFkaWVudD4mI3hhOwkJPGxpbmVhckdyYWRpZW50IGdyYWRpZW50VW5pdHM9InVzZXJTcGFjZU9uVXNlIiB5Mj0iMjIyLjkiIHgyPSIxNTcuNyIgeTE9IjI5NC4xIiB4MT0iMzIyLjEiIGlkPSJnMjEiPiYjeGE7CQkJPHN0b3Agc3RvcC1jb2xvcj0iIzNhMmJhYSIgb2Zmc2V0PSIwIi8+JiN4YTsJCQk8c3RvcCBzdG9wLWNvbG9yPSIjMmYxNzg0IiBvZmZzZXQ9IjEiLz4mI3hhOwkJPC9saW5lYXJHcmFkaWVudD4mI3hhOwkJPGxpbmVhckdyYWRpZW50IGdyYWRpZW50VW5pdHM9InVzZXJTcGFjZU9uVXNlIiB5Mj0iMjcwLjMiIHgyPSIxMzYuOSIgeTE9IjM0OS4xIiB4MT0iMzE4LjgiIGlkPSJnMjIiPiYjeGE7CQkJPHN0b3Agc3RvcC1jb2xvcj0iIzNhMmJhYSIgb2Zmc2V0PSIwIi8+JiN4YTsJCQk8c3RvcCBzdG9wLWNvbG9yPSIjMmYxNzg0IiBvZmZzZXQ9IjEiLz4mI3hhOwkJPC9saW5lYXJHcmFkaWVudD4mI3hhOwkJPGxpbmVhckdyYWRpZW50IGdyYWRpZW50VW5pdHM9InVzZXJTcGFjZU9uVXNlIiB5Mj0iMjExLjkiIHgyPSIzMzMuNCIgeTE9IjIxMS45IiB4MT0iMTY3LjgiIGlkPSJnMjMiPiYjeGE7CQkJPHN0b3Agc3RvcC1jb2xvcj0iI2ZmYjg1MCIgb2Zmc2V0PSIwIi8+JiN4YTsJCQk8c3RvcCBzdG9wLWNvbG9yPSIjZmY4NjJjIiBvZmZzZXQ9IjEiLz4mI3hhOwkJPC9saW5lYXJHcmFkaWVudD4mI3hhOwkJPGxpbmVhckdyYWRpZW50IGdyYWRpZW50VW5pdHM9InVzZXJTcGFjZU9uVXNlIiB5Mj0iMjIzLjUiIHgyPSIxMDUzLjciIHkxPSIxMDguNiIgeDE9IjEwNTMuNyIgaWQ9ImcyNCI+JiN4YTsJCQk8c3RvcCBzdG9wLWNvbG9yPSIjZWY0MTkwIiBvZmZzZXQ9Ii4wMDUiLz4mI3hhOwkJCTxzdG9wIHN0b3AtY29sb3I9IiNmZmZmZmYiIG9mZnNldD0iMSIvPiYjeGE7CQk8L2xpbmVhckdyYWRpZW50PiYjeGE7CQk8bGluZWFyR3JhZGllbnQgZ3JhZGllbnRVbml0cz0idXNlclNwYWNlT25Vc2UiIHkyPSIxMDYuMyIgeDI9IjI1NC43IiB5MT0iMTA2LjMiIHgxPSIyNDYuNSIgaWQ9ImcyNSI+JiN4YTsJCQk8c3RvcCBzdG9wLWNvbG9yPSIjZWY0MTkwIiBvZmZzZXQ9Ii4wMDUiLz4mI3hhOwkJCTxzdG9wIHN0b3AtY29sb3I9IiNmZjU3OWMiIG9mZnNldD0iMSIvPiYjeGE7CQk8L2xpbmVhckdyYWRpZW50PiYjeGE7CQk8bGluZWFyR3JhZGllbnQgZ3JhZGllbnRVbml0cz0idXNlclNwYWNlT25Vc2UiIHkyPSIyNDYuNiIgeDI9IjEwODUuNiIgeTE9IjEzMi40IiB4MT0iMTA4NS42IiBpZD0iZzI2Ij4mI3hhOwkJCTxzdG9wIHN0b3AtY29sb3I9IiNlZjQxOTAiIG9mZnNldD0iLjAwNSIvPiYjeGE7CQkJPHN0b3Agc3RvcC1jb2xvcj0iI2ZmZmZmZiIgb2Zmc2V0PSIxIi8+JiN4YTsJCTwvbGluZWFyR3JhZGllbnQ+JiN4YTsJCTxsaW5lYXJHcmFkaWVudCBncmFkaWVudFVuaXRzPSJ1c2VyU3BhY2VPblVzZSIgeTI9IjEzMCIgeDI9IjI5NS40IiB5MT0iMTMwIiB4MT0iMjg3LjIiIGlkPSJnMjciPiYjeGE7CQkJPHN0b3Agc3RvcC1jb2xvcj0iI2VmNDE5MCIgb2Zmc2V0PSIuMDA1Ii8+JiN4YTsJCQk8c3RvcCBzdG9wLWNvbG9yPSIjZmY1NzljIiBvZmZzZXQ9IjEiLz4mI3hhOwkJPC9saW5lYXJHcmFkaWVudD4mI3hhOwkJPGxpbmVhckdyYWRpZW50IGdyYWRpZW50VW5pdHM9InVzZXJTcGFjZU9uVXNlIiB5Mj0iMjU0LjMiIHgyPSI3MTMuOSIgeTE9IjE3Mi40IiB4MT0iNzEzLjkiIGlkPSJnMjgiPiYjeGE7CQkJPHN0b3Agc3RvcC1jb2xvcj0iI2VmNDE5MCIgb2Zmc2V0PSIuMDA1Ii8+JiN4YTsJCQk8c3RvcCBzdG9wLWNvbG9yPSIjZmZmZmZmIiBvZmZzZXQ9IjEiLz4mI3hhOwkJPC9saW5lYXJHcmFkaWVudD4mI3hhOwkJPGxpbmVhckdyYWRpZW50IGdyYWRpZW50VW5pdHM9InVzZXJTcGFjZU9uVXNlIiB5Mj0iMTcwLjEiIHgyPSIzMDguOSIgeTE9IjE3MC4xIiB4MT0iMzAwLjciIGlkPSJnMjkiPiYjeGE7CQkJPHN0b3Agc3RvcC1jb2xvcj0iI2VmNDE5MCIgb2Zmc2V0PSIuMDA1Ii8+JiN4YTsJCQk8c3RvcCBzdG9wLWNvbG9yPSIjZmY1NzljIiBvZmZzZXQ9IjEiLz4mI3hhOwkJPC9saW5lYXJHcmFkaWVudD4mI3hhOwkJPGxpbmVhckdyYWRpZW50IGdyYWRpZW50VW5pdHM9InVzZXJTcGFjZU9uVXNlIiB5Mj0iMjYyIiB4Mj0iNjY4LjYiIHkxPSIxODYuMiIgeDE9IjY2OC42IiBpZD0iZzMwIj4mI3hhOwkJCTxzdG9wIHN0b3AtY29sb3I9IiNlZjQxOTAiIG9mZnNldD0iLjAwNSIvPiYjeGE7CQkJPHN0b3Agc3RvcC1jb2xvcj0iI2ZmZmZmZiIgb2Zmc2V0PSIxIi8+JiN4YTsJCTwvbGluZWFyR3JhZGllbnQ+JiN4YTsJCTxsaW5lYXJHcmFkaWVudCBncmFkaWVudFVuaXRzPSJ1c2VyU3BhY2VPblVzZSIgeTI9IjE4My45IiB4Mj0iMzIyLjUiIHkxPSIxODMuOSIgeDE9IjMxNC4zIiBpZD0iZzMxIj4mI3hhOwkJCTxzdG9wIHN0b3AtY29sb3I9IiNlZjQxOTAiIG9mZnNldD0iLjAwNSIvPiYjeGE7CQkJPHN0b3Agc3RvcC1jb2xvcj0iI2ZmNTc5YyIgb2Zmc2V0PSIxIi8+JiN4YTsJCTwvbGluZWFyR3JhZGllbnQ+JiN4YTsJCTxsaW5lYXJHcmFkaWVudCBncmFkaWVudFVuaXRzPSJ1c2VyU3BhY2VPblVzZSIgeTI9IjI2OS43IiB4Mj0iNTIzLjQiIHkxPSIyMDkuOCIgeDE9IjUyMy40IiBpZD0iZzMyIj4mI3hhOwkJCTxzdG9wIHN0b3AtY29sb3I9IiNlZjQxOTAiIG9mZnNldD0iLjAwNSIvPiYjeGE7CQkJPHN0b3Agc3RvcC1jb2xvcj0iI2ZmZmZmZiIgb2Zmc2V0PSIxIi8+JiN4YTsJCTwvbGluZWFyR3JhZGllbnQ+JiN4YTsJCTxsaW5lYXJHcmFkaWVudCBncmFkaWVudFVuaXRzPSJ1c2VyU3BhY2VPblVzZSIgeTI9IjIwNy41IiB4Mj0iMzA4LjkiIHkxPSIyMDcuNSIgeDE9IjMwMC43IiBpZD0iZzMzIj4mI3hhOwkJCTxzdG9wIHN0b3AtY29sb3I9IiNlZjQxOTAiIG9mZnNldD0iLjAwNSIvPiYjeGE7CQkJPHN0b3Agc3RvcC1jb2xvcj0iI2ZmNTc5YyIgb2Zmc2V0PSIxIi8+JiN4YTsJCTwvbGluZWFyR3JhZGllbnQ+JiN4YTsJCTxsaW5lYXJHcmFkaWVudCBncmFkaWVudFVuaXRzPSJ1c2VyU3BhY2VPblVzZSIgeTI9IjI2MiIgeDI9IjY3NC44IiB5MT0iMTgyLjYiIHgxPSI2NzQuOCIgaWQ9ImczNCI+JiN4YTsJCQk8c3RvcCBzdG9wLWNvbG9yPSIjZWY0MTkwIiBvZmZzZXQ9Ii4wMDUiLz4mI3hhOwkJCTxzdG9wIHN0b3AtY29sb3I9IiNmZmZmZmYiIG9mZnNldD0iMSIvPiYjeGE7CQk8L2xpbmVhckdyYWRpZW50PiYjeGE7CQk8bGluZWFyR3JhZGllbnQgZ3JhZGllbnRVbml0cz0idXNlclNwYWNlT25Vc2UiIHkyPSIxODAuMyIgeDI9IjI5NS40IiB5MT0iMTgwLjMiIHgxPSIyODcuMiIgaWQ9ImczNSI+JiN4YTsJCQk8c3RvcCBzdG9wLWNvbG9yPSIjZWY0MTkwIiBvZmZzZXQ9Ii4wMDUiLz4mI3hhOwkJCTxzdG9wIHN0b3AtY29sb3I9IiNmZjU3OWMiIG9mZnNldD0iMSIvPiYjeGE7CQk8L2xpbmVhckdyYWRpZW50PiYjeGE7CQk8bGluZWFyR3JhZGllbnQgZ3JhZGllbnRVbml0cz0idXNlclNwYWNlT25Vc2UiIHkyPSIyNDEuMiIgeDI9IjkwOS43IiB5MT0iMTM5LjQiIHgxPSI5MDkuNyIgaWQ9ImczNiI+JiN4YTsJCQk8c3RvcCBzdG9wLWNvbG9yPSIjZWY0MTkwIiBvZmZzZXQ9Ii4wMDUiLz4mI3hhOwkJCTxzdG9wIHN0b3AtY29sb3I9IiNmZmZmZmYiIG9mZnNldD0iMSIvPiYjeGE7CQk8L2xpbmVhckdyYWRpZW50PiYjeGE7CQk8bGluZWFyR3JhZGllbnQgZ3JhZGllbnRVbml0cz0idXNlclNwYWNlT25Vc2UiIHkyPSIxMzcuMSIgeDI9IjI4MS44IiB5MT0iMTM3LjEiIHgxPSIyNzMuNiIgaWQ9ImczNyI+JiN4YTsJCQk8c3RvcCBzdG9wLWNvbG9yPSIjZWY0MTkwIiBvZmZzZXQ9Ii4wMDUiLz4mI3hhOwkJCTxzdG9wIHN0b3AtY29sb3I9IiNmZjU3OWMiIG9mZnNldD0iMSIvPiYjeGE7CQk8L2xpbmVhckdyYWRpZW50PiYjeGE7CQk8bGluZWFyR3JhZGllbnQgZ3JhZGllbnRVbml0cz0idXNlclNwYWNlT25Vc2UiIHkyPSIyMzguOSIgeDI9IjEwNDAuNCIgeTE9IjEyNCIgeDE9IjEwNDAuNCIgaWQ9ImczOCI+JiN4YTsJCQk8c3RvcCBzdG9wLWNvbG9yPSIjZWY0MTkwIiBvZmZzZXQ9Ii4wMDUiLz4mI3hhOwkJCTxzdG9wIHN0b3AtY29sb3I9IiNmZmZmZmYiIG9mZnNldD0iMSIvPiYjeGE7CQk8L2xpbmVhckdyYWRpZW50PiYjeGE7CQk8bGluZWFyR3JhZGllbnQgZ3JhZGllbnRVbml0cz0idXNlclNwYWNlT25Vc2UiIHkyPSIxMjEuNyIgeDI9IjI0MS41IiB5MT0iMTIxLjciIHgxPSIyMzMuMiIgaWQ9ImczOSI+JiN4YTsJCQk8c3RvcCBzdG9wLWNvbG9yPSIjZWY0MTkwIiBvZmZzZXQ9Ii4wMDUiLz4mI3hhOwkJCTxzdG9wIHN0b3AtY29sb3I9IiNmZjU3OWMiIG9mZnNldD0iMSIvPiYjeGE7CQk8L2xpbmVhckdyYWRpZW50PiYjeGE7CQk8bGluZWFyR3JhZGllbnQgZ3JhZGllbnRVbml0cz0idXNlclNwYWNlT25Vc2UiIHkyPSIyNTQuMyIgeDI9Ijc4OS43IiB5MT0iMTU5IiB4MT0iNzg5LjciIGlkPSJnNDAiPiYjeGE7CQkJPHN0b3Agc3RvcC1jb2xvcj0iI2VmNDE5MCIgb2Zmc2V0PSIuMDA1Ii8+JiN4YTsJCQk8c3RvcCBzdG9wLWNvbG9yPSIjZmZmZmZmIiBvZmZzZXQ9IjEiLz4mI3hhOwkJPC9saW5lYXJHcmFkaWVudD4mI3hhOwkJPGxpbmVhckdyYWRpZW50IGdyYWRpZW50VW5pdHM9InVzZXJTcGFjZU9uVXNlIiB5Mj0iMTU2LjciIHgyPSIyNDEuNSIgeTE9IjE1Ni43IiB4MT0iMjMzLjIiIGlkPSJnNDEiPiYjeGE7CQkJPHN0b3Agc3RvcC1jb2xvcj0iI2VmNDE5MCIgb2Zmc2V0PSIuMDA1Ii8+JiN4YTsJCQk8c3RvcCBzdG9wLWNvbG9yPSIjZmY1NzljIiBvZmZzZXQ9IjEiLz4mI3hhOwkJPC9saW5lYXJHcmFkaWVudD4mI3hhOwkJPGxpbmVhckdyYWRpZW50IGdyYWRpZW50VW5pdHM9InVzZXJTcGFjZU9uVXNlIiB5Mj0iMjc3LjQiIHgyPSI2NDIuMSIgeTE9IjE5NS44IiB4MT0iNjQyLjEiIGlkPSJnNDIiPiYjeGE7CQkJPHN0b3Agc3RvcC1jb2xvcj0iI2VmNDE5MCIgb2Zmc2V0PSIuMDA1Ii8+JiN4YTsJCQk8c3RvcCBzdG9wLWNvbG9yPSIjZmZmZmZmIiBvZmZzZXQ9IjEiLz4mI3hhOwkJPC9saW5lYXJHcmFkaWVudD4mI3hhOwkJPGxpbmVhckdyYWRpZW50IGdyYWRpZW50VW5pdHM9InVzZXJTcGFjZU9uVXNlIiB5Mj0iMTkzLjUiIHgyPSIyNDEuNSIgeTE9IjE5My41IiB4MT0iMjMzLjIiIGlkPSJnNDMiPiYjeGE7CQkJPHN0b3Agc3RvcC1jb2xvcj0iI2VmNDE5MCIgb2Zmc2V0PSIuMDA1Ii8+JiN4YTsJCQk8c3RvcCBzdG9wLWNvbG9yPSIjZmY1NzljIiBvZmZzZXQ9IjEiLz4mI3hhOwkJPC9saW5lYXJHcmFkaWVudD4mI3hhOwkJPGxpbmVhckdyYWRpZW50IGdyYWRpZW50VW5pdHM9InVzZXJTcGFjZU9uVXNlIiB5Mj0iMjg1LjEiIHgyPSI0MzMuMiIgeTE9IjIyOC4zIiB4MT0iNDMzLjIiIGlkPSJnNDQiPiYjeGE7CQkJPHN0b3Agc3RvcC1jb2xvcj0iI2VmNDE5MCIgb2Zmc2V0PSIuMDA1Ii8+JiN4YTsJCQk8c3RvcCBzdG9wLWNvbG9yPSIjZmZmZmZmIiBvZmZzZXQ9IjEiLz4mI3hhOwkJPC9saW5lYXJHcmFkaWVudD4mI3hhOwkJPGxpbmVhckdyYWRpZW50IGdyYWRpZW50VW5pdHM9InVzZXJTcGFjZU9uVXNlIiB5Mj0iMjI2IiB4Mj0iMjQxLjUiIHkxPSIyMjYiIHgxPSIyMzMuMiIgaWQ9Imc0NSI+JiN4YTsJCQk8c3RvcCBzdG9wLWNvbG9yPSIjZWY0MTkwIiBvZmZzZXQ9Ii4wMDUiLz4mI3hhOwkJCTxzdG9wIHN0b3AtY29sb3I9IiNmZjU3OWMiIG9mZnNldD0iMSIvPiYjeGE7CQk8L2xpbmVhckdyYWRpZW50PiYjeGE7CQk8bGluZWFyR3JhZGllbnQgZ3JhZGllbnRVbml0cz0idXNlclNwYWNlT25Vc2UiIHkyPSIyNDYuNiIgeDI9IjEwMTMuOSIgeTE9IjEzMS43IiB4MT0iMTAxMy45IiBpZD0iZzQ2Ij4mI3hhOwkJCTxzdG9wIHN0b3AtY29sb3I9IiNlZjQxOTAiIG9mZnNldD0iLjAwNSIvPiYjeGE7CQkJPHN0b3Agc3RvcC1jb2xvcj0iI2ZmZmZmZiIgb2Zmc2V0PSIxIi8+JiN4YTsJCTwvbGluZWFyR3JhZGllbnQ+JiN4YTsJCTxsaW5lYXJHcmFkaWVudCBncmFkaWVudFVuaXRzPSJ1c2VyU3BhY2VPblVzZSIgeTI9IjEyOS40IiB4Mj0iMjE0LjkiIHkxPSIxMjkuNCIgeDE9IjIwNi43IiBpZD0iZzQ3Ij4mI3hhOwkJCTxzdG9wIHN0b3AtY29sb3I9IiNlZjQxOTAiIG9mZnNldD0iLjAwNSIvPiYjeGE7CQkJPHN0b3Agc3RvcC1jb2xvcj0iI2ZmNTc5YyIgb2Zmc2V0PSIxIi8+JiN4YTsJCTwvbGluZWFyR3JhZGllbnQ+JiN4YTsJCTxsaW5lYXJHcmFkaWVudCBncmFkaWVudFVuaXRzPSJ1c2VyU3BhY2VPblVzZSIgeTI9IjI3Ny40IiB4Mj0iNTE3LjEiIHkxPSIyMDYuNCIgeDE9IjUxNy4xIiBpZD0iZzQ4Ij4mI3hhOwkJCTxzdG9wIHN0b3AtY29sb3I9IiNlZjQxOTAiIG9mZnNldD0iLjAwNSIvPiYjeGE7CQkJPHN0b3Agc3RvcC1jb2xvcj0iI2ZmZmZmZiIgb2Zmc2V0PSIxIi8+JiN4YTsJCTwvbGluZWFyR3JhZGllbnQ+JiN4YTsJCTxsaW5lYXJHcmFkaWVudCBncmFkaWVudFVuaXRzPSJ1c2VyU3BhY2VPblVzZSIgeTI9IjIwNC4xIiB4Mj0iMjE0LjkiIHkxPSIyMDQuMSIgeDE9IjIwNi43IiBpZD0iZzQ5Ij4mI3hhOwkJCTxzdG9wIHN0b3AtY29sb3I9IiNlZjQxOTAiIG9mZnNldD0iLjAwNSIvPiYjeGE7CQkJPHN0b3Agc3RvcC1jb2xvcj0iI2ZmNTc5YyIgb2Zmc2V0PSIxIi8+JiN4YTsJCTwvbGluZWFyR3JhZGllbnQ+JiN4YTsJCTxsaW5lYXJHcmFkaWVudCBncmFkaWVudFVuaXRzPSJ1c2VyU3BhY2VPblVzZSIgeTI9IjI2MiIgeDI9IjU2NC43IiB5MT0iMTgzIiB4MT0iNTY0LjciIGlkPSJnNTAiPiYjeGE7CQkJPHN0b3Agc3RvcC1jb2xvcj0iI2VmNDE5MCIgb2Zmc2V0PSIuMDA1Ii8+JiN4YTsJCQk8c3RvcCBzdG9wLWNvbG9yPSIjZmZmZmZmIiBvZmZzZXQ9IjEiLz4mI3hhOwkJPC9saW5lYXJHcmFkaWVudD4mI3hhOwkJPGxpbmVhckdyYWRpZW50IGdyYWRpZW50VW5pdHM9InVzZXJTcGFjZU9uVXNlIiB5Mj0iMTgwLjciIHgyPSIxODguNCIgeTE9IjE4MC43IiB4MT0iMTgwLjIiIGlkPSJnNTEiPiYjeGE7CQkJPHN0b3Agc3RvcC1jb2xvcj0iI2VmNDE5MCIgb2Zmc2V0PSIuMDA1Ii8+JiN4YTsJCQk8c3RvcCBzdG9wLWNvbG9yPSIjZmY1NzljIiBvZmZzZXQ9IjEiLz4mI3hhOwkJPC9saW5lYXJHcmFkaWVudD4mI3hhOwkJPGxpbmVhckdyYWRpZW50IGdyYWRpZW50VW5pdHM9InVzZXJTcGFjZU9uVXNlIiB5Mj0iMjU0LjMiIHgyPSI4MjIuNSIgeTE9IjE1MyIgeDE9IjgyMi41IiBpZD0iZzUyIj4mI3hhOwkJCTxzdG9wIHN0b3AtY29sb3I9IiNlZjQxOTAiIG9mZnNldD0iLjAwNSIvPiYjeGE7CQkJPHN0b3Agc3RvcC1jb2xvcj0iI2ZmZmZmZiIgb2Zmc2V0PSIxIi8+JiN4YTsJCTwvbGluZWFyR3JhZGllbnQ+JiN4YTsJCTxsaW5lYXJHcmFkaWVudCBncmFkaWVudFVuaXRzPSJ1c2VyU3BhY2VPblVzZSIgeTI9IjE1MC43IiB4Mj0iMjAxLjciIHkxPSIxNTAuNyIgeDE9IjE5My41IiBpZD0iZzUzIj4mI3hhOwkJCTxzdG9wIHN0b3AtY29sb3I9IiNlZjQxOTAiIG9mZnNldD0iLjAwNSIvPiYjeGE7CQkJPHN0b3Agc3RvcC1jb2xvcj0iI2ZmNTc5YyIgb2Zmc2V0PSIxIi8+JiN4YTsJCTwvbGluZWFyR3JhZGllbnQ+JiN4YTsJCTxsaW5lYXJHcmFkaWVudCBncmFkaWVudFVuaXRzPSJ1c2VyU3BhY2VPblVzZSIgeTI9IjI0Ni42IiB4Mj0iNzg3LjEiIHkxPSIxNTAuNCIgeDE9Ijc4Ny4xIiBpZD0iZzU0Ij4mI3hhOwkJCTxzdG9wIHN0b3AtY29sb3I9IiNlZjQxOTAiIG9mZnNldD0iLjAwNSIvPiYjeGE7CQkJPHN0b3Agc3RvcC1jb2xvcj0iI2ZmZmZmZiIgb2Zmc2V0PSIxIi8+JiN4YTsJCTwvbGluZWFyR3JhZGllbnQ+JiN4YTsJCTxsaW5lYXJHcmFkaWVudCBncmFkaWVudFVuaXRzPSJ1c2VyU3BhY2VPblVzZSIgeTI9IjE0OC4xIiB4Mj0iMjI4LjIiIHkxPSIxNDguMSIgeDE9IjIyMCIgaWQ9Imc1NSI+JiN4YTsJCQk8c3RvcCBzdG9wLWNvbG9yPSIjZWY0MTkwIiBvZmZzZXQ9Ii4wMDUiLz4mI3hhOwkJCTxzdG9wIHN0b3AtY29sb3I9IiNmZjU3OWMiIG9mZnNldD0iMSIvPiYjeGE7CQk8L2xpbmVhckdyYWRpZW50PiYjeGE7CQk8bGluZWFyR3JhZGllbnQgZ3JhZGllbnRVbml0cz0idXNlclNwYWNlT25Vc2UiIHkyPSIyMzEuMiIgeDI9Ijk4MC4yIiB5MT0iMTIyLjgiIHgxPSI5ODAuMiIgaWQ9Imc1NiI+JiN4YTsJCQk8c3RvcCBzdG9wLWNvbG9yPSIjZWY0MTkwIiBvZmZzZXQ9Ii4wMDUiLz4mI3hhOwkJCTxzdG9wIHN0b3AtY29sb3I9IiNmZmZmZmYiIG9mZnNldD0iMSIvPiYjeGE7CQk8L2xpbmVhckdyYWRpZW50PiYjeGE7CQk8bGluZWFyR3JhZGllbnQgZ3JhZGllbnRVbml0cz0idXNlclNwYWNlT25Vc2UiIHkyPSIxMjAuNSIgeDI9IjI2OC4zIiB5MT0iMTIwLjUiIHgxPSIyNjAuMSIgaWQ9Imc1NyI+JiN4YTsJCQk8c3RvcCBzdG9wLWNvbG9yPSIjZWY0MTkwIiBvZmZzZXQ9Ii4wMDUiLz4mI3hhOwkJCTxzdG9wIHN0b3AtY29sb3I9IiNmZjU3OWMiIG9mZnNldD0iMSIvPiYjeGE7CQk8L2xpbmVhckdyYWRpZW50PiYjeGE7CQk8bGluZWFyR3JhZGllbnQgZ3JhZGllbnRVbml0cz0idXNlclNwYWNlT25Vc2UiIHkyPSIyNjIuMSIgeDI9IjYzNS41IiB5MT0iMTg0IiB4MT0iNjM1LjUiIGlkPSJnNTgiPiYjeGE7CQkJPHN0b3Agc3RvcC1jb2xvcj0iI2VmNDE5MCIgb2Zmc2V0PSIuMDA1Ii8+JiN4YTsJCQk8c3RvcCBzdG9wLWNvbG9yPSIjZmZmZmZmIiBvZmZzZXQ9IjEiLz4mI3hhOwkJPC9saW5lYXJHcmFkaWVudD4mI3hhOwkJPGxpbmVhckdyYWRpZW50IGdyYWRpZW50VW5pdHM9InVzZXJTcGFjZU9uVXNlIiB5Mj0iMTgxLjciIHgyPSIyNjguMyIgeTE9IjE4MS43IiB4MT0iMjYwLjEiIGlkPSJnNTkiPiYjeGE7CQkJPHN0b3Agc3RvcC1jb2xvcj0iI2VmNDE5MCIgb2Zmc2V0PSIuMDA1Ii8+JiN4YTsJCQk8c3RvcCBzdG9wLWNvbG9yPSIjZmY1NzljIiBvZmZzZXQ9IjEiLz4mI3hhOwkJPC9saW5lYXJHcmFkaWVudD4mI3hhOwkJPGxpbmVhckdyYWRpZW50IGdyYWRpZW50VW5pdHM9InVzZXJTcGFjZU9uVXNlIiB5Mj0iMjkyLjgiIHgyPSI0MDMuOSIgeTE9IjI0NC45IiB4MT0iNDAzLjkiIGlkPSJnNjAiPiYjeGE7CQkJPHN0b3Agc3RvcC1jb2xvcj0iI2VmNDE5MCIgb2Zmc2V0PSIuMDA1Ii8+JiN4YTsJCQk8c3RvcCBzdG9wLWNvbG9yPSIjZmZmZmZmIiBvZmZzZXQ9IjEiLz4mI3hhOwkJPC9saW5lYXJHcmFkaWVudD4mI3hhOwkJPGxpbmVhckdyYWRpZW50IGdyYWRpZW50VW5pdHM9InVzZXJTcGFjZU9uVXNlIiB5Mj0iMjQyLjUiIHgyPSIyNjguMyIgeTE9IjI0Mi41IiB4MT0iMjYwLjEiIGlkPSJnNjEiPiYjeGE7CQkJPHN0b3Agc3RvcC1jb2xvcj0iI2VmNDE5MCIgb2Zmc2V0PSIuMDA1Ii8+JiN4YTsJCQk8c3RvcCBzdG9wLWNvbG9yPSIjZmY1NzljIiBvZmZzZXQ9IjEiLz4mI3hhOwkJPC9saW5lYXJHcmFkaWVudD4mI3hhOwkJPGxpbmVhckdyYWRpZW50IGdyYWRpZW50VW5pdHM9InVzZXJTcGFjZU9uVXNlIiB5Mj0iMjYyIiB4Mj0iODg1LjUiIHkxPSIxNjIuMSIgeDE9Ijg4NS41IiBpZD0iZzYyIj4mI3hhOwkJCTxzdG9wIHN0b3AtY29sb3I9IiNlZjQxOTAiIG9mZnNldD0iLjAwNSIvPiYjeGE7CQkJPHN0b3Agc3RvcC1jb2xvcj0iI2ZmZmZmZiIgb2Zmc2V0PSIxIi8+JiN4YTsJCTwvbGluZWFyR3JhZGllbnQ+JiN4YTsJCTxsaW5lYXJHcmFkaWVudCBncmFkaWVudFVuaXRzPSJ1c2VyU3BhY2VPblVzZSIgeTI9IjE1OS44IiB4Mj0iMjgxLjgiIHkxPSIxNTkuOCIgeDE9IjI3My42IiBpZD0iZzYzIj4mI3hhOwkJCTxzdG9wIHN0b3AtY29sb3I9IiNlZjQxOTAiIG9mZnNldD0iLjAwNSIvPiYjeGE7CQkJPHN0b3Agc3RvcC1jb2xvcj0iI2ZmNTc5YyIgb2Zmc2V0PSIxIi8+JiN4YTsJCTwvbGluZWFyR3JhZGllbnQ+JiN4YTsJCTxsaW5lYXJHcmFkaWVudCBncmFkaWVudFVuaXRzPSJ1c2VyU3BhY2VPblVzZSIgeTI9IjI3Ny40IiB4Mj0iNTA1LjIiIHkxPSIyMTYuMiIgeDE9IjUwNS4yIiBpZD0iZzY0Ij4mI3hhOwkJCTxzdG9wIHN0b3AtY29sb3I9IiNlZjQxOTAiIG9mZnNldD0iLjAwNSIvPiYjeGE7CQkJPHN0b3Agc3RvcC1jb2xvcj0iI2ZmZmZmZiIgb2Zmc2V0PSIxIi8+JiN4YTsJCTwvbGluZWFyR3JhZGllbnQ+JiN4YTsJCTxsaW5lYXJHcmFkaWVudCBncmFkaWVudFVuaXRzPSJ1c2VyU3BhY2VPblVzZSIgeTI9IjIxMy45IiB4Mj0iMjgxLjgiIHkxPSIyMTMuOSIgeDE9IjI3My42IiBpZD0iZzY1Ij4mI3hhOwkJCTxzdG9wIHN0b3AtY29sb3I9IiNlZjQxOTAiIG9mZnNldD0iLjAwNSIvPiYjeGE7CQkJPHN0b3Agc3RvcC1jb2xvcj0iI2ZmNTc5YyIgb2Zmc2V0PSIxIi8+JiN4YTsJCTwvbGluZWFyR3JhZGllbnQ+JiN4YTsJCTxsaW5lYXJHcmFkaWVudCBncmFkaWVudFVuaXRzPSJ1c2VyU3BhY2VPblVzZSIgeTI9IjI1NC4zIiB4Mj0iNjE5LjUiIHkxPSIxNzMuNyIgeDE9IjYxOS41IiBpZD0iZzY2Ij4mI3hhOwkJCTxzdG9wIHN0b3AtY29sb3I9IiNlZjQxOTAiIG9mZnNldD0iLjAwNSIvPiYjeGE7CQkJPHN0b3Agc3RvcC1jb2xvcj0iI2ZmZmZmZiIgb2Zmc2V0PSIxIi8+JiN4YTsJCTwvbGluZWFyR3JhZGllbnQ+JiN4YTsJCTxsaW5lYXJHcmFkaWVudCBncmFkaWVudFVuaXRzPSJ1c2VyU3BhY2VPblVzZSIgeTI9IjE3MS40IiB4Mj0iMjI4LjIiIHkxPSIxNzEuNCIgeDE9IjIyMCIgaWQ9Imc2NyI+JiN4YTsJCQk8c3RvcCBzdG9wLWNvbG9yPSIjZWY0MTkwIiBvZmZzZXQ9Ii4wMDUiLz4mI3hhOwkJCTxzdG9wIHN0b3AtY29sb3I9IiNmZjU3OWMiIG9mZnNldD0iMSIvPiYjeGE7CQk8L2xpbmVhckdyYWRpZW50PiYjeGE7CQk8bGluZWFyR3JhZGllbnQgZ3JhZGllbnRVbml0cz0idXNlclNwYWNlT25Vc2UiIHkyPSIyNzcuNCIgeDI9Ijc0MC4zIiB5MT0iMTg1LjMiIHgxPSI3NDAuMyIgaWQ9Imc2OCI+JiN4YTsJCQk8c3RvcCBzdG9wLWNvbG9yPSIjZWY0MTkwIiBvZmZzZXQ9Ii4wMDUiLz4mI3hhOwkJCTxzdG9wIHN0b3AtY29sb3I9IiNmZmZmZmYiIG9mZnNldD0iMSIvPiYjeGE7CQk8L2xpbmVhckdyYWRpZW50PiYjeGE7CQk8bGluZWFyR3JhZGllbnQgZ3JhZGllbnRVbml0cz0idXNlclNwYWNlT25Vc2UiIHkyPSIxODMiIHgyPSIyMjguMiIgeTE9IjE4MyIgeDE9IjIyMCIgaWQ9Imc2OSI+JiN4YTsJCQk8c3RvcCBzdG9wLWNvbG9yPSIjZWY0MTkwIiBvZmZzZXQ9Ii4wMDUiLz4mI3hhOwkJCTxzdG9wIHN0b3AtY29sb3I9IiNmZjU3OWMiIG9mZnNldD0iMSIvPiYjeGE7CQk8L2xpbmVhckdyYWRpZW50PiYjeGE7CQk8bGluZWFyR3JhZGllbnQgZ3JhZGllbnRVbml0cz0idXNlclNwYWNlT25Vc2UiIHkyPSIyMzguOSIgeDI9IjgxOS45IiB5MT0iMTQyLjIiIHgxPSI4MTkuOSIgaWQ9Imc3MCI+JiN4YTsJCQk8c3RvcCBzdG9wLWNvbG9yPSIjZWY0MTkwIiBvZmZzZXQ9Ii4wMDUiLz4mI3hhOwkJCTxzdG9wIHN0b3AtY29sb3I9IiNmZmZmZmYiIG9mZnNldD0iMSIvPiYjeGE7CQk8L2xpbmVhckdyYWRpZW50PiYjeGE7CQk8bGluZWFyR3JhZGllbnQgZ3JhZGllbnRVbml0cz0idXNlclNwYWNlT25Vc2UiIHkyPSIxMzkuOSIgeDI9IjI1NC43IiB5MT0iMTM5LjkiIHgxPSIyNDYuNSIgaWQ9Imc3MSI+JiN4YTsJCQk8c3RvcCBzdG9wLWNvbG9yPSIjZWY0MTkwIiBvZmZzZXQ9Ii4wMDUiLz4mI3hhOwkJCTxzdG9wIHN0b3AtY29sb3I9IiNmZjU3OWMiIG9mZnNldD0iMSIvPiYjeGE7CQk8L2xpbmVhckdyYWRpZW50PiYjeGE7CQk8bGluZWFyR3JhZGllbnQgZ3JhZGllbnRVbml0cz0idXNlclNwYWNlT25Vc2UiIHkyPSIyNTQuMSIgeDI9IjgxOS45IiB5MT0iMTU3LjQiIHgxPSI4MTkuOSIgaWQ9Imc3MiI+JiN4YTsJCQk8c3RvcCBzdG9wLWNvbG9yPSIjZWY0MTkwIiBvZmZzZXQ9Ii4wMDUiLz4mI3hhOwkJCTxzdG9wIHN0b3AtY29sb3I9IiNmZmZmZmYiIG9mZnNldD0iMSIvPiYjeGE7CQk8L2xpbmVhckdyYWRpZW50PiYjeGE7CQk8bGluZWFyR3JhZGllbnQgZ3JhZGllbnRVbml0cz0idXNlclNwYWNlT25Vc2UiIHkyPSIxNTUuMSIgeDI9IjI1NC43IiB5MT0iMTU1LjEiIHgxPSIyNDYuNSIgaWQ9Imc3MyI+JiN4YTsJCQk8c3RvcCBzdG9wLWNvbG9yPSIjZWY0MTkwIiBvZmZzZXQ9Ii4wMDUiLz4mI3hhOwkJCTxzdG9wIHN0b3AtY29sb3I9IiNmZjU3OWMiIG9mZnNldD0iMSIvPiYjeGE7CQk8L2xpbmVhckdyYWRpZW50PiYjeGE7CQk8bGluZWFyR3JhZGllbnQgZ3JhZGllbnRVbml0cz0idXNlclNwYWNlT25Vc2UiIHkyPSIyNzcuNCIgeDI9IjgxOS45IiB5MT0iMTgwLjciIHgxPSI4MTkuOSIgaWQ9Imc3NCI+JiN4YTsJCQk8c3RvcCBzdG9wLWNvbG9yPSIjZWY0MTkwIiBvZmZzZXQ9Ii4wMDUiLz4mI3hhOwkJCTxzdG9wIHN0b3AtY29sb3I9IiNmZmZmZmYiIG9mZnNldD0iMSIvPiYjeGE7CQk8L2xpbmVhckdyYWRpZW50PiYjeGE7CQk8bGluZWFyR3JhZGllbnQgZ3JhZGllbnRVbml0cz0idXNlclNwYWNlT25Vc2UiIHkyPSIxNzguNCIgeDI9IjI1NC43IiB5MT0iMTc4LjQiIHgxPSIyNDYuNSIgaWQ9Imc3NSI+JiN4YTsJCQk8c3RvcCBzdG9wLWNvbG9yPSIjZWY0MTkwIiBvZmZzZXQ9Ii4wMDUiLz4mI3hhOwkJCTxzdG9wIHN0b3AtY29sb3I9IiNmZjU3OWMiIG9mZnNldD0iMSIvPiYjeGE7CQk8L2xpbmVhckdyYWRpZW50PiYjeGE7CQk8bGluZWFyR3JhZGllbnQgZ3JhZGllbnRVbml0cz0idXNlclNwYWNlT25Vc2UiIHkyPSIzMDAuNCIgeDI9IjM0OC4zIiB5MT0iMjYwLjQiIHgxPSIzNDguMyIgaWQ9Imc3NiI+JiN4YTsJCQk8c3RvcCBzdG9wLWNvbG9yPSIjZWY0MTkwIiBvZmZzZXQ9Ii4wMDUiLz4mI3hhOwkJCTxzdG9wIHN0b3AtY29sb3I9IiNmZmZmZmYiIG9mZnNldD0iMSIvPiYjeGE7CQk8L2xpbmVhckdyYWRpZW50PiYjeGE7CQk8bGluZWFyR3JhZGllbnQgZ3JhZGllbnRVbml0cz0idXNlclNwYWNlT25Vc2UiIHkyPSIyNTguMSIgeDI9IjI1NC43IiB5MT0iMjU4LjEiIHgxPSIyNDYuNSIgaWQ9Imc3NyI+JiN4YTsJCQk8c3RvcCBzdG9wLWNvbG9yPSIjZWY0MTkwIiBvZmZzZXQ9Ii4wMDUiLz4mI3hhOwkJCTxzdG9wIHN0b3AtY29sb3I9IiNmZjU3OWMiIG9mZnNldD0iMSIvPiYjeGE7CQk8L2xpbmVhckdyYWRpZW50PiYjeGE7CQk8bGluZWFyR3JhZGllbnQgZ3JhZGllbnRVbml0cz0idXNlclNwYWNlT25Vc2UiIHkyPSIyNzcuNCIgeDI9IjM5NC41IiB5MT0iMjM2LjIiIHgxPSIzOTQuNSIgaWQ9Imc3OCI+JiN4YTsJCQk8c3RvcCBzdG9wLWNvbG9yPSIjZWY0MTkwIiBvZmZzZXQ9Ii4wMDUiLz4mI3hhOwkJCTxzdG9wIHN0b3AtY29sb3I9IiNmZmZmZmYiIG9mZnNldD0iMSIvPiYjeGE7CQk8L2xpbmVhckdyYWRpZW50PiYjeGE7CQk8bGluZWFyR3JhZGllbnQgZ3JhZGllbnRVbml0cz0idXNlclNwYWNlT25Vc2UiIHkyPSIyMzMuOSIgeDI9IjI5NS40IiB5MT0iMjMzLjkiIHgxPSIyODcuMiIgaWQ9Imc3OSI+JiN4YTsJCQk8c3RvcCBzdG9wLWNvbG9yPSIjZWY0MTkwIiBvZmZzZXQ9Ii4wMDUiLz4mI3hhOwkJCTxzdG9wIHN0b3AtY29sb3I9IiNmZjU3OWMiIG9mZnNldD0iMSIvPiYjeGE7CQk8L2xpbmVhckdyYWRpZW50PiYjeGE7CTwvZGVmcz4mI3hhOwk8c3R5bGU+JiN4YTsJCS5zMCB7IGZpbGw6IHVybCgjZzEpIH0gJiN4YTsJCS5zMSB7IGZpbGw6ICNmZmZmZmYgfSAmI3hhOwkJLnMyIHsgZmlsbDogdXJsKCNnMikgfSAmI3hhOwkJLnMzIHsgZmlsbDogdXJsKCNnMykgfSAmI3hhOwkJLnM0IHsgZmlsbDogdXJsKCNnNCkgfSAmI3hhOwkJLnM1IHsgZmlsbDogdXJsKCNnNSkgfSAmI3hhOwkJLnM2IHsgZmlsbDogdXJsKCNnNikgfSAmI3hhOwkJLnM3IHsgZmlsbDogdXJsKCNnNykgfSAmI3hhOwkJLnM4IHsgZmlsbDogdXJsKCNnOCkgfSAmI3hhOwkJLnM5IHsgZmlsbDogdXJsKCNnOSkgfSAmI3hhOwkJLnMxMCB7IGZpbGw6IHVybCgjZzEwKSB9ICYjeGE7CQkuczExIHsgZmlsbDogdXJsKCNnMTEpIH0gJiN4YTsJCS5zMTIgeyBmaWxsOiB1cmwoI2cxMikgfSAmI3hhOwkJLnMxMyB7IGZpbGw6IHVybCgjZzEzKSB9ICYjeGE7CQkuczE0IHsgZmlsbDogdXJsKCNnMTQpIH0gJiN4YTsJCS5zMTUgeyBmaWxsOiB1cmwoI2cxNSkgfSAmI3hhOwkJLnMxNiB7IGZpbGw6IHVybCgjZzE2KSB9ICYjeGE7CQkuczE3IHsgZmlsbDogdXJsKCNnMTcpIH0gJiN4YTsJCS5zMTggeyBmaWxsOiB1cmwoI2cxOCkgfSAmI3hhOwkJLnMxOSB7IGZpbGw6IHVybCgjZzE5KSB9ICYjeGE7CQkuczIwIHsgZmlsbDogdXJsKCNnMjApIH0gJiN4YTsJCS5zMjEgeyBmaWxsOiB1cmwoI2cyMSkgfSAmI3hhOwkJLnMyMiB7IGZpbGw6IHVybCgjZzIyKSB9ICYjeGE7CQkuczIzIHsgZmlsbDogdXJsKCNnMjMpIH0gJiN4YTsJCS5zMjQgeyBmaWxsOiB1cmwoI2cyNCkgfSAmI3hhOwkJLnMyNSB7IG9wYWNpdHk6IC44O2ZpbGw6IHVybCgjZzI1KSB9ICYjeGE7CQkuczI2IHsgZmlsbDogdXJsKCNnMjYpIH0gJiN4YTsJCS5zMjcgeyBvcGFjaXR5OiAuODtmaWxsOiB1cmwoI2cyNykgfSAmI3hhOwkJLnMyOCB7IGZpbGw6IHVybCgjZzI4KSB9ICYjeGE7CQkuczI5IHsgb3BhY2l0eTogLjg7ZmlsbDogdXJsKCNnMjkpIH0gJiN4YTsJCS5zMzAgeyBmaWxsOiB1cmwoI2czMCkgfSAmI3hhOwkJLnMzMSB7IG9wYWNpdHk6IC44O2ZpbGw6IHVybCgjZzMxKSB9ICYjeGE7CQkuczMyIHsgZmlsbDogdXJsKCNnMzIpIH0gJiN4YTsJCS5zMzMgeyBvcGFjaXR5OiAuODtmaWxsOiB1cmwoI2czMykgfSAmI3hhOwkJLnMzNCB7IGZpbGw6IHVybCgjZzM0KSB9ICYjeGE7CQkuczM1IHsgb3BhY2l0eTogLjg7ZmlsbDogdXJsKCNnMzUpIH0gJiN4YTsJCS5zMzYgeyBmaWxsOiB1cmwoI2czNikgfSAmI3hhOwkJLnMzNyB7IG9wYWNpdHk6IC44O2ZpbGw6IHVybCgjZzM3KSB9ICYjeGE7CQkuczM4IHsgZmlsbDogdXJsKCNnMzgpIH0gJiN4YTsJCS5zMzkgeyBvcGFjaXR5OiAuODtmaWxsOiB1cmwoI2czOSkgfSAmI3hhOwkJLnM0MCB7IGZpbGw6IHVybCgjZzQwKSB9ICYjeGE7CQkuczQxIHsgb3BhY2l0eTogLjg7ZmlsbDogdXJsKCNnNDEpIH0gJiN4YTsJCS5zNDIgeyBmaWxsOiB1cmwoI2c0MikgfSAmI3hhOwkJLnM0MyB7IG9wYWNpdHk6IC44O2ZpbGw6IHVybCgjZzQzKSB9ICYjeGE7CQkuczQ0IHsgZmlsbDogdXJsKCNnNDQpIH0gJiN4YTsJCS5zNDUgeyBvcGFjaXR5OiAuODtmaWxsOiB1cmwoI2c0NSkgfSAmI3hhOwkJLnM0NiB7IGZpbGw6IHVybCgjZzQ2KSB9ICYjeGE7CQkuczQ3IHsgb3BhY2l0eTogLjg7ZmlsbDogdXJsKCNnNDcpIH0gJiN4YTsJCS5zNDggeyBmaWxsOiB1cmwoI2c0OCkgfSAmI3hhOwkJLnM0OSB7IG9wYWNpdHk6IC44O2ZpbGw6IHVybCgjZzQ5KSB9ICYjeGE7CQkuczUwIHsgZmlsbDogdXJsKCNnNTApIH0gJiN4YTsJCS5zNTEgeyBvcGFjaXR5OiAuODtmaWxsOiB1cmwoI2c1MSkgfSAmI3hhOwkJLnM1MiB7IGZpbGw6IHVybCgjZzUyKSB9ICYjeGE7CQkuczUzIHsgb3BhY2l0eTogLjg7ZmlsbDogdXJsKCNnNTMpIH0gJiN4YTsJCS5zNTQgeyBmaWxsOiB1cmwoI2c1NCkgfSAmI3hhOwkJLnM1NSB7IG9wYWNpdHk6IC44O2ZpbGw6IHVybCgjZzU1KSB9ICYjeGE7CQkuczU2IHsgZmlsbDogdXJsKCNnNTYpIH0gJiN4YTsJCS5zNTcgeyBvcGFjaXR5OiAuODtmaWxsOiB1cmwoI2c1NykgfSAmI3hhOwkJLnM1OCB7IGZpbGw6IHVybCgjZzU4KSB9ICYjeGE7CQkuczU5IHsgb3BhY2l0eTogLjg7ZmlsbDogdXJsKCNnNTkpIH0gJiN4YTsJCS5zNjAgeyBmaWxsOiB1cmwoI2c2MCkgfSAmI3hhOwkJLnM2MSB7IG9wYWNpdHk6IC44O2ZpbGw6IHVybCgjZzYxKSB9ICYjeGE7CQkuczYyIHsgZmlsbDogdXJsKCNnNjIpIH0gJiN4YTsJCS5zNjMgeyBvcGFjaXR5OiAuODtmaWxsOiB1cmwoI2c2MykgfSAmI3hhOwkJLnM2NCB7IGZpbGw6IHVybCgjZzY0KSB9ICYjeGE7CQkuczY1IHsgb3BhY2l0eTogLjg7ZmlsbDogdXJsKCNnNjUpIH0gJiN4YTsJCS5zNjYgeyBmaWxsOiB1cmwoI2c2NikgfSAmI3hhOwkJLnM2NyB7IG9wYWNpdHk6IC44O2ZpbGw6IHVybCgjZzY3KSB9ICYjeGE7CQkuczY4IHsgZmlsbDogdXJsKCNnNjgpIH0gJiN4YTsJCS5zNjkgeyBvcGFjaXR5OiAuODtmaWxsOiB1cmwoI2c2OSkgfSAmI3hhOwkJLnM3MCB7IGZpbGw6IHVybCgjZzcwKSB9ICYjeGE7CQkuczcxIHsgb3BhY2l0eTogLjg7ZmlsbDogdXJsKCNnNzEpIH0gJiN4YTsJCS5zNzIgeyBmaWxsOiB1cmwoI2c3MikgfSAmI3hhOwkJLnM3MyB7IG9wYWNpdHk6IC44O2ZpbGw6IHVybCgjZzczKSB9ICYjeGE7CQkuczc0IHsgZmlsbDogdXJsKCNnNzQpIH0gJiN4YTsJCS5zNzUgeyBvcGFjaXR5OiAuODtmaWxsOiB1cmwoI2c3NSkgfSAmI3hhOwkJLnM3NiB7IGZpbGw6IHVybCgjZzc2KSB9ICYjeGE7CQkuczc3IHsgb3BhY2l0eTogLjg7ZmlsbDogdXJsKCNnNzcpIH0gJiN4YTsJCS5zNzggeyBmaWxsOiB1cmwoI2c3OCkgfSAmI3hhOwkJLnM3OSB7IG9wYWNpdHk6IC44O2ZpbGw6IHVybCgjZzc5KSB9ICYjeGE7CTwvc3R5bGU+JiN4YTsJPGcgaWQ9IkxheWVyIDEiPiYjeGE7CQk8ZyBpZD0iJmx0O0dyb3VwJmd0OyI+JiN4YTsJCQk8ZyBpZD0iJmx0O0dyb3VwJmd0OyI+JiN4YTsJCQkJPGcgaWQ9IiZsdDtHcm91cCZndDsiPiYjeGE7CQkJCQk8cGF0aCBkPSJtMTQ4LjEgMzE4LjljLTIuMiAwLTQgMS00LjEgMi4yIDAgMC41IDAuMyAwLjkgMC43IDEuMmwtMjIuMSAxMi44Yy0xLTAuNC0yLjItMC42LTMuNS0wLjctMy42IDAtNi42IDEuNi02LjYgMy43IDAgMiAyLjkgMy43IDYuNSAzLjggMy43IDAgNi43LTEuNiA2LjctMy43IDAtMC43LTAuNC0xLjQtMS0ybDIyLjMtMTIuOXEwLjUgMC4xIDEgMC4xYzIuMiAwIDQtMC45IDQtMi4yIDAtMS4yLTEuNy0yLjMtMy45LTIuM3oiIGNsYXNzPSJzMCIgaWQ9IiZsdDtQYXRoJmd0OyIvPiYjeGE7CQkJCQk8cGF0aCBkPSJtMTE5LjEgMzM1LjljMi4yIDAgNCAxLjEgNCAyLjMgMCAxLjItMS44IDIuMi00IDIuMi0yLjIgMC00LTEtNC0yLjMgMC0xLjIgMS44LTIuMiA0LTIuMnoiIGNsYXNzPSJzMSIgaWQ9IiZsdDtQYXRoJmd0OyIvPiYjeGE7CQkJCTwvZz4mI3hhOwkJCQk8ZyBpZD0iJmx0O0dyb3VwJmd0OyI+JiN4YTsJCQkJCTxwYXRoIGQ9Im0xMjkuNyAyNjQuNmMtMi4yLTAuMS00IDAuOS00IDIuMiAwIDAuNCAwLjIgMC44IDAuNiAxLjJsLTIyIDEyLjdjLTEtMC40LTIuMi0wLjYtMy41LTAuNi0zLjYtMC4xLTYuNiAxLjYtNi42IDMuNiAwIDIuMSAyLjkgMy44IDYuNSAzLjggMy43IDAgNi42LTEuNiA2LjctMy42IDAtMC44LTAuNC0xLjUtMS4xLTIuMWwyMi4zLTEyLjlxMC41IDAuMSAxLjEgMC4yYzIuMiAwIDQtMSA0LTIuMyAwLTEuMi0xLjctMi4yLTQtMi4yeiIgY2xhc3M9InMyIiBpZD0iJmx0O1BhdGgmZ3Q7Ii8+JiN4YTsJCQkJCTxwYXRoIGQ9Im0xMDAuOCAyODEuNWMyLjIgMC4xIDQgMS4xIDQgMi4zIDAgMS4zLTEuOCAyLjMtNC4xIDIuMi0yLjIgMC0zLjktMS0zLjktMi4zIDAtMS4yIDEuOC0yLjIgNC0yLjJ6IiBjbGFzcz0iczEiIGlkPSImbHQ7UGF0aCZndDsiLz4mI3hhOwkJCQk8L2c+JiN4YTsJCQkJPGcgaWQ9IiZsdDtHcm91cCZndDsiPiYjeGE7CQkJCQk8cGF0aCBkPSJtMzQ5LjkgMzE3LjVjMi4yLTAuMSA0IDAuOSA0IDIuMiAwIDAuNC0wLjIgMC44LTAuNiAxLjJsMjIgMTIuN2MxLTAuNCAyLjItMC42IDMuNS0wLjYgMy43LTAuMSA2LjYgMS42IDYuNyAzLjYgMCAyLjEtMyAzLjgtNi42IDMuOC0zLjYgMC4xLTYuNi0xLjYtNi42LTMuNi0wLjEtMC44IDAuMy0xLjUgMS0yLjFsLTIyLjMtMTIuOHEtMC41IDAtMS4xIDAuMWMtMi4yIDAtNC0xLTQtMi4yIDAtMS4zIDEuOC0yLjMgNC0yLjN6IiBjbGFzcz0iczMiIGlkPSImbHQ7UGF0aCZndDsiLz4mI3hhOwkJCQkJPHBhdGggZD0ibTM3OC44IDMzNC40Yy0yLjIgMC4xLTQgMS4xLTMuOSAyLjMgMCAxLjMgMS44IDIuMyA0IDIuMiAyLjIgMCA0LTEgNC0yLjMtMC4xLTEuMi0xLjktMi4yLTQuMS0yLjJ6IiBjbGFzcz0iczEiIGlkPSImbHQ7UGF0aCZndDsiLz4mI3hhOwkJCQk8L2c+JiN4YTsJCQkJPGcgaWQ9IiZsdDtHcm91cCZndDsiPiYjeGE7CQkJCQk8cGF0aCBkPSJtNDAwLjcgMTY0LjhjLTMuNi0wLjEtNi42IDEuNS02LjYgMy42IDAgMC45IDAuNiAxLjcgMS41IDIuNGwtMjYuNyAxNS41LTMzLjcgMC4xLTIwMi43IDExN2gtNjAuMmMtMC42LTEuNy0zLjItMy4xLTYuNS0zLjEtMy42LTAuMS02LjYgMS42LTYuNiAzLjYgMCAyLjEgMi45IDMuOCA2LjYgMy44IDIuOCAwLjEgNS4yLTAuOSA2LjItMi4zaDYxLjFsMjAyLjYtMTE3IDMzLjgtMC4xIDI4LjQtMTYuNXExLjIgMC40IDIuNyAwLjRjMy43IDAgNi43LTEuNiA2LjctMy43IDAtMi0yLjktMy43LTYuNi0zLjd6IiBjbGFzcz0iczQiIGlkPSImbHQ7UGF0aCZndDsiLz4mI3hhOwkJCQkJPHBhdGggZD0ibTQwMC43IDE2Ni4yYzIuMiAwIDQgMS4xIDQgMi4zIDAgMS4zLTEuOCAyLjItNCAyLjItMi4zIDAtNC0xLTQtMi4zIDAtMS4yIDEuOC0yLjIgNC0yLjJ6IiBjbGFzcz0iczEiIGlkPSImbHQ7UGF0aCZndDsiLz4mI3hhOwkJCQkJPHBhdGggZD0ibTY1LjggMzAxLjhjMi4yIDAgNCAxIDQgMi4zIDAgMS4yLTEuOCAyLjItNCAyLjItMi4yLTAuMS00LTEuMS00LTIuMyAwLTEuMyAxLjgtMi4zIDQtMi4yeiIgY2xhc3M9InMxIiBpZD0iJmx0O1BhdGgmZ3Q7Ii8+JiN4YTsJCQkJPC9nPiYjeGE7CQkJCTxnIGlkPSImbHQ7R3JvdXAmZ3Q7Ij4mI3hhOwkJCQkJPHBhdGggZD0ibTM5My4xIDE3OS4zYy0zLjYtMC4xLTYuNiAxLjYtNi42IDMuNiAwIDAuNyAwLjMgMS40IDAuOSAxLjlsLTM5LjYgMjIuOS0zMy44IDAuMS0yMTUuNyAxMjQuNi0wLjMgMC4yLTcuMiAyNC45cS0wLjItMC4xLTAuMy0wLjFjLTMuNyAwLTYuNyAxLjYtNi43IDMuNyAwIDIgMi45IDMuNyA2LjYgMy44IDMuNiAwIDYuNi0xLjYgNi42LTMuNyAwLTEuNi0xLjctMi45LTQuMi0zLjVsNi45LTIzLjggMjE0LjktMTI0LjEgMzMuNy0wLjEgNDEuMS0yMy43YzEgMC40IDIuMyAwLjcgMy43IDAuNyAzLjYgMCA2LjYtMS42IDYuNi0zLjYgMC0yLjEtMi45LTMuOC02LjYtMy44eiIgY2xhc3M9InM1IiBpZD0iJmx0O1BhdGgmZ3Q7Ii8+JiN4YTsJCQkJCTxwYXRoIGQ9Im05MC41IDM1OC45YzIuMiAwIDMuOSAxLjEgMy45IDIuMyAwIDEuMi0xLjggMi4yLTQgMi4yLTIuMiAwLTQtMS4xLTQtMi4zIDAtMS4yIDEuOC0yLjIgNC4xLTIuMnoiIGNsYXNzPSJzMSIgaWQ9IiZsdDtQYXRoJmd0OyIvPiYjeGE7CQkJCQk8cGF0aCBkPSJtMzkzLjEgMTgwLjdjMi4yIDAuMSA0IDEuMSA0IDIuMyAwIDEuMy0xLjggMi4zLTQgMi4yLTIuMiAwLTQtMS00LTIuMyAwLTEuMiAxLjgtMi4yIDQtMi4yeiIgY2xhc3M9InMxIiBpZD0iJmx0O1BhdGgmZ3Q7Ii8+JiN4YTsJCQkJPC9nPiYjeGE7CQkJCTxnIGlkPSImbHQ7R3JvdXAmZ3Q7Ij4mI3hhOwkJCQkJPHBhdGggZD0ibTM2NS43IDM2NS44Yy0xLjMgMC0yLjUgMC4yLTMuNSAwLjVsLTI5LjktMTcuNGgtMzIuOGwtMTcxLjktOTkuNy0xLjYtMjAuMS0yMC0xMS4xYzAuNi0wLjYgMC45LTEuMiAwLjktMS45IDAuMS0yLjEtMi45LTMuOC02LjUtMy44LTMuNy0wLjEtNi42IDEuNi02LjcgMy42IDAgMi4xIDMgMy44IDYuNiAzLjggMS4zIDAgMi42LTAuMiAzLjYtMC42bDIwLjIgMTEuMiAxLjUgMjAuMSAxNzMuNCAxMDAuNWgzMi43bDI4LjQgMTYuNmMtMC42IDAuNS0xIDEuMi0xIDEuOSAwIDIuMSAyLjkgMy44IDYuNSAzLjggMy43IDAuMSA2LjctMS42IDYuNy0zLjYgMC0yLjEtMi45LTMuOC02LjYtMy44eiIgY2xhc3M9InM2IiBpZD0iJmx0O1BhdGgmZ3Q7Ii8+JiN4YTsJCQkJCTxwYXRoIGQ9Im0xMDAuNCAyMTMuN2MyLjIgMC4xIDQgMS4xIDMuOSAyLjMgMCAxLjMtMS44IDIuMy00IDIuMi0yLjIgMC00LTEtNC0yLjMgMC4xLTEuMiAxLjktMi4yIDQuMS0yLjJ6IiBjbGFzcz0iczEiIGlkPSImbHQ7UGF0aCZndDsiLz4mI3hhOwkJCQkJPHBhdGggZD0ibTM2NS43IDM2Ny4zYzIuMiAwIDQgMSA0IDIuMyAwIDEuMi0xLjggMi4yLTQgMi4yLTIuMy0wLjEtNC0xLjEtNC0yLjMgMC0xLjMgMS44LTIuMyA0LTIuMnoiIGNsYXNzPSJzMSIgaWQ9IiZsdDtQYXRoJmd0OyIvPiYjeGE7CQkJCTwvZz4mI3hhOwkJCQk8ZyBpZD0iJmx0O0dyb3VwJmd0OyI+JiN4YTsJCQkJCTxwYXRoIGQ9Im00MjEuOCAyOTYuN2MtMy4xIDAtNS43IDEuMi02LjQgMi44aC0yNy43bC0yMDIuNS0xMTYuOC0wLjItMC4yLTMzLjgtMC4xLTMwLjktMThjMC45LTAuNiAxLjQtMS40IDEuNC0yLjIgMC0yLjEtMi45LTMuOC02LjYtMy44LTMuNiAwLTYuNiAxLjYtNi42IDMuNiAwIDIuMSAyLjkgMy44IDYuNiAzLjggMS4xIDAgMi4xLTAuMSAzLTAuNGwzMi42IDE5IDMzLjggMC4xIDIwMi40IDExNi44IDAuMiAwLjJoMjguNGMwLjggMS41IDMuMyAyLjYgNi4yIDIuNyAzLjcgMCA2LjYtMS42IDYuNy0zLjcgMC0yLTIuOS0zLjctNi42LTMuOHoiIGNsYXNzPSJzNyIgaWQ9IiZsdDtQYXRoJmd0OyIvPiYjeGE7CQkJCQk8cGF0aCBkPSJtMTE1LjEgMTU5LjljMi4yIDAgNCAxIDQgMi4zIDAgMS4yLTEuOCAyLjItNCAyLjItMi4yLTAuMS00LTEuMS00LTIuMyAwLTEuMyAxLjgtMi4zIDQtMi4yeiIgY2xhc3M9InMxIiBpZD0iJmx0O1BhdGgmZ3Q7Ii8+JiN4YTsJCQkJCTxwYXRoIGQ9Im00MjEuOCAyOTguMmMyLjIgMCA0IDEuMSA0IDIuMyAwIDEuMi0xLjggMi4yLTQuMSAyLjItMi4yIDAtMy45LTEuMS0zLjktMi4zIDAtMS4yIDEuOC0yLjIgNC0yLjJ6IiBjbGFzcz0iczEiIGlkPSImbHQ7UGF0aCZndDsiLz4mI3hhOwkJCQk8L2c+JiN4YTsJCQkJPGcgaWQ9IiZsdDtHcm91cCZndDsiPiYjeGE7CQkJCQk8cGF0aCBkPSJtMzYxLjcgMzM4LjJjLTEuNC0wLjEtMi44IDAuMi0zLjkgMC42bC0yNy42LTE1LjUtMi44LTIyLjMtMTM5LjgtODEuNy0wLjItMC4xLTM2LjUtMC40LTM2LjMtMjFjMC42LTAuNSAxLTEuMiAxLTEuOSAwLTItMi45LTMuNy02LjUtMy44LTMuNyAwLTYuNyAxLjYtNi43IDMuNyAwIDIgMi45IDMuNyA2LjYgMy44IDEuMyAwIDIuNi0wLjIgMy42LTAuNmwzNy41IDIxLjcgMC4yIDAuMSAzNi42IDAuNCAxMzguNyA4MSAyLjcgMjIuMyAyNy42IDE1LjZjLTAuNSAwLjUtMC44IDEuMS0wLjggMS43IDAgMiAyLjkgMy43IDYuNSAzLjggMy43IDAgNi43LTEuNiA2LjctMy42IDAtMi4xLTIuOS0zLjgtNi42LTMuOHoiIGNsYXNzPSJzOCIgaWQ9IiZsdDtQYXRoJmd0OyIvPiYjeGE7CQkJCQk8cGF0aCBkPSJtMTA5IDE5My42YzIuMyAwIDQgMSA0IDIuMyAwIDEuMi0xLjggMi4yLTQgMi4yLTIuMiAwLTQtMS4xLTQtMi4zIDAtMS4zIDEuOC0yLjIgNC0yLjJ6IiBjbGFzcz0iczEiIGlkPSImbHQ7UGF0aCZndDsiLz4mI3hhOwkJCQkJPHBhdGggZD0ibTM2MS43IDMzOS42YzIuMiAwLjEgNCAxLjEgNCAyLjMgMCAxLjMtMS44IDIuMy00IDIuMi0yLjMgMC00LTEtNC0yLjMgMC0xLjIgMS44LTIuMiA0LTIuMnoiIGNsYXNzPSJzMSIgaWQ9IiZsdDtQYXRoJmd0OyIvPiYjeGE7CQkJCTwvZz4mI3hhOwkJCQk8ZyBpZD0iJmx0O0dyb3VwJmd0OyI+JiN4YTsJCQkJCTxwYXRoIGQ9Im0zODQuOCAzNTkuN2MtMS40IDAtMi43IDAuMi0zLjggMC42bC0yODkuOC0xNjcuOWMwLjUtMC41IDAuOC0xLjEgMC45LTEuOCAwLTItMy0zLjctNi42LTMuNy0zLjYtMC4xLTYuNiAxLjUtNi42IDMuNi0wLjEgMiAyLjkgMy43IDYuNSAzLjggMS40IDAgMi44LTAuMiAzLjktMC43bDI4OS44IDE2Ny45Yy0wLjYgMC42LTAuOSAxLjItMC45IDEuOCAwIDIuMSAyLjkgMy44IDYuNiAzLjggMy42IDAuMSA2LjYtMS42IDYuNi0zLjYgMC0yLjEtMi45LTMuOC02LjYtMy44eiIgY2xhc3M9InM5IiBpZD0iJmx0O1BhdGgmZ3Q7Ii8+JiN4YTsJCQkJCTxwYXRoIGQ9Im04NS41IDE4OC4zYzIuMiAwIDQgMS4xIDMuOSAyLjMgMCAxLjMtMS44IDIuMi00IDIuMi0yLjIgMC00LTEtMy45LTIuMyAwLTEuMiAxLjgtMi4yIDQtMi4yeiIgY2xhc3M9InMxIiBpZD0iJmx0O1BhdGgmZ3Q7Ii8+JiN4YTsJCQkJCTxwYXRoIGQ9Im0zODQuOCAzNjEuMWMyLjIgMC4xIDQgMS4xIDQgMi4zIDAgMS4zLTEuOCAyLjMtNCAyLjItMi4yIDAtNC0xLTQtMi4zIDAtMS4yIDEuOC0yLjIgNC0yLjJ6IiBjbGFzcz0iczEiIGlkPSImbHQ7UGF0aCZndDsiLz4mI3hhOwkJCQk8L2c+JiN4YTsJCQkJPGcgaWQ9IiZsdDtHcm91cCZndDsiPiYjeGE7CQkJCQk8cGF0aCBkPSJtMzg4LjggMzcwLjljLTEuMyAwLTIuNSAwLjItMy41IDAuNWwtNjcuOS0zOS40aC0zMi44bC0xNDQuOS04My41LTEuNS0yMC4xLTQ0LjctMjUuOWMwLjctMC41IDEuMS0xLjIgMS4yLTIgMC0yLjEtMy0zLjgtNi42LTMuOC0zLjYgMC02LjYgMS42LTYuNiAzLjYtMC4xIDIuMSAyLjkgMy44IDYuNSAzLjggMS4zIDAgMi40LTAuMSAzLjQtMC41bDQ0LjkgMjYgMS41IDIwLjEgMTQ2IDg0LjIgMC4zIDAuMWgzMi43bDY2LjUgMzguNWMtMC43IDAuNi0xLjEgMS4zLTEuMSAyIDAgMi4xIDIuOSAzLjggNi42IDMuOCAzLjYgMC4xIDYuNi0xLjYgNi42LTMuNiAwLTIuMS0yLjktMy44LTYuNi0zLjh6IiBjbGFzcz0iczEwIiBpZD0iJmx0O1BhdGgmZ3Q7Ii8+JiN4YTsJCQkJCTxwYXRoIGQ9Im04OC4xIDE5OC4yYzIuMiAwIDQgMSA0IDIuMy0wLjEgMS4yLTEuOSAyLjItNC4xIDIuMi0yLjItMC4xLTQtMS4xLTMuOS0yLjMgMC0xLjMgMS44LTIuMyA0LTIuMnoiIGNsYXNzPSJzMSIgaWQ9IiZsdDtQYXRoJmd0OyIvPiYjeGE7CQkJCQk8cGF0aCBkPSJtMzg4LjggMzcyLjRjMi4yIDAgNCAxIDQgMi4yIDAgMS4zLTEuOCAyLjMtNCAyLjMtMi4yLTAuMS00LTEuMS00LTIuMyAwLTEuMyAxLjgtMi4zIDQtMi4yeiIgY2xhc3M9InMxIiBpZD0iJmx0O1BhdGgmZ3Q7Ii8+JiN4YTsJCQkJPC9nPiYjeGE7CQkJCTxnIGlkPSImbHQ7R3JvdXAmZ3Q7Ij4mI3hhOwkJCQkJPHBhdGggZD0ibTQwOS45IDM1NmwtNi41LTIyLjItMjE1LjgtMTI0LjctMC4yLTAuMS0zNy44LTAuMS01NC40LTMxLjVjMC43LTAuNSAxLjEtMS4yIDEuMS0yIDAtMi0yLjktMy43LTYuNi0zLjctMy42LTAuMS02LjYgMS41LTYuNiAzLjYgMCAyIDIuOSAzLjcgNi41IDMuOCAxLjMgMCAyLjUtMC4yIDMuNi0wLjZsNTUuNyAzMi4yIDAuMiAwLjIgMzcuOCAwLjEgMjE0LjkgMTI0LjEgNiAyMWMtMi44IDAuNC00LjkgMS44LTUgMy41IDAgMi4xIDIuOSAzLjggNi42IDMuOCAzLjYgMCA2LjYtMS42IDYuNi0zLjYgMC4xLTItMi43LTMuNi02LjEtMy44eiIgY2xhc3M9InMxMSIgaWQ9IiZsdDtQYXRoJmd0OyIvPiYjeGE7CQkJCQk8cGF0aCBkPSJtODkuNyAxNzMuMWMyLjIgMCA0IDEuMSA0IDIuMyAwIDEuMy0xLjggMi4yLTQgMi4yLTIuMiAwLTQtMS00LTIuMyAwLTEuMiAxLjgtMi4yIDQtMi4yeiIgY2xhc3M9InMxIiBpZD0iJmx0O1BhdGgmZ3Q7Ii8+JiN4YTsJCQkJCTxwYXRoIGQ9Im00MDkuNSAzNTcuNGMyLjIgMC4xIDMuOSAxLjEgMy45IDIuMyAwIDEuMy0xLjggMi4zLTQgMi4yLTIuMiAwLTQtMS00LTIuMyAwLTEuMiAxLjktMi4yIDQuMS0yLjJ6IiBjbGFzcz0iczEiIGlkPSImbHQ7UGF0aCZndDsiLz4mI3hhOwkJCQk8L2c+JiN4YTsJCQkJPGcgaWQ9IiZsdDtHcm91cCZndDsiPiYjeGE7CQkJCQk8cGF0aCBkPSJtNDM0LjcgMzAzLjRjLTMuMSAwLTUuNiAxLjEtNi40IDIuN2gtNjAuNGwtMjAyLjQtMTE2LjgtMC4yLTAuMS0zMy44LTAuMS0xNi05LjRjMC42LTAuNSAxLTEuMiAxLTIgMC4xLTItMi45LTMuNy02LjUtMy43LTMuNy0wLjEtNi42IDEuNS02LjcgMy42IDAgMiAzIDMuNyA2LjYgMy44IDEuMyAwIDIuNS0wLjIgMy41LTAuNmwxNy42IDEwLjMgMzMuNyAwLjEgMjAyLjUgMTE2LjggMC4yIDAuMWg2MWMwLjggMS42IDMuMiAyLjcgNi4yIDIuNyAzLjcgMC4xIDYuNi0xLjYgNi43LTMuNiAwLTIuMS0zLTMuOC02LjYtMy44eiIgY2xhc3M9InMxMiIgaWQ9IiZsdDtQYXRoJmd0OyIvPiYjeGE7CQkJCQk8cGF0aCBkPSJtMTEwIDE3NS40YzIuMiAwIDQgMS4xIDMuOSAyLjMgMCAxLjMtMS44IDIuMi00IDIuMi0yLjIgMC00LTEtNC0yLjMgMC4xLTEuMiAxLjktMi4yIDQuMS0yLjJ6IiBjbGFzcz0iczEiIGlkPSImbHQ7UGF0aCZndDsiLz4mI3hhOwkJCQkJPHBhdGggZD0ibTQzNC43IDMwNC45YzIuMiAwIDQgMSA0IDIuMy0wLjEgMS4yLTEuOSAyLjItNC4xIDIuMi0yLjItMC4xLTQtMS4xLTMuOS0yLjMgMC0xLjMgMS44LTIuMyA0LTIuMnoiIGNsYXNzPSJzMSIgaWQ9IiZsdDtQYXRoJmd0OyIvPiYjeGE7CQkJCTwvZz4mI3hhOwkJCQk8ZyBpZD0iJmx0O0dyb3VwJmd0OyI+JiN4YTsJCQkJCTxwYXRoIGQ9Im00MTcuOCAxOTQuOGMtMy42LTAuMS02LjYgMS42LTYuNiAzLjYgMCAwLjkgMC41IDEuNiAxLjMgMi4zbC00Ny41IDI3LjQtMS41IDIwLjEtMTQ0LjkgODMuNWgtMzIuN2wtMzAgMTcuNGMtMS0wLjQtMi4xLTAuNi0zLjQtMC42LTMuNiAwLTYuNiAxLjYtNi42IDMuNiAwIDIuMSAyLjkgMy44IDYuNSAzLjggMy43IDAuMSA2LjctMS41IDYuNy0zLjYgMC0wLjgtMC40LTEuNS0xLjEtMi4xbDI4LjQtMTYuNWgzMi44bDE0Ni4yLTg0LjMgMS42LTIwLjEgNDcuNy0yNy42YzAuOSAwLjMgMS45IDAuNSAzIDAuNSAzLjcgMCA2LjYtMS42IDYuNy0zLjYgMC0yLjEtMi45LTMuOC02LjYtMy44eiIgY2xhc3M9InMxMyIgaWQ9IiZsdDtQYXRoJmd0OyIvPiYjeGE7CQkJCQk8cGF0aCBkPSJtNDE3LjggMTk2LjJjMi4yIDAuMSA0IDEuMSA0IDIuMyAwIDEuMy0xLjggMi4zLTQuMSAyLjItMi4yIDAtMy45LTEtMy45LTIuMyAwLTEuMiAxLjgtMi4yIDQtMi4yeiIgY2xhc3M9InMxIiBpZD0iJmx0O1BhdGgmZ3Q7Ii8+JiN4YTsJCQkJCTxwYXRoIGQ9Im0xNTIuNSAzNTBjMi4yIDAgNCAxIDQgMi4zIDAgMS4yLTEuOCAyLjItNCAyLjItMi4zLTAuMS00LTEuMS00LTIuMyAwLTEuMyAxLjgtMi4zIDQtMi4yeiIgY2xhc3M9InMxIiBpZD0iJmx0O1BhdGgmZ3Q7Ii8+JiN4YTsJCQkJPC9nPiYjeGE7CQkJCTxnIGlkPSImbHQ7R3JvdXAmZ3Q7Ij4mI3hhOwkJCQkJPHBhdGggZD0ibTQyNS44IDE4MGMtMy43IDAtNi42IDEuNi02LjcgMy43IDAgMC45IDAuNyAxLjggMS44IDIuNWwtMzA5LjMgMTc5LjFjLTEuMS0wLjQtMi40LTAuNy0zLjgtMC43LTMuNiAwLTYuNiAxLjYtNi42IDMuNiAwIDIuMSAyLjkgMy44IDYuNiAzLjggMy42IDAuMSA2LjYtMS42IDYuNi0zLjYgMC0wLjctMC4zLTEuMy0wLjktMS45bDMwOS43LTE3OS40cTEuMiAwLjMgMi41IDAuNGMzLjYgMCA2LjYtMS42IDYuNi0zLjcgMC4xLTItMi45LTMuNy02LjUtMy44eiIgY2xhc3M9InMxNCIgaWQ9IiZsdDtQYXRoJmd0OyIvPiYjeGE7CQkJCQk8cGF0aCBkPSJtNDI1LjggMTgxLjVjMi4yIDAgMy45IDEgMy45IDIuMyAwIDEuMi0xLjggMi4yLTQgMi4yLTIuMiAwLTQtMS4xLTQtMi4zIDAuMS0xLjMgMS45LTIuMiA0LjEtMi4yeiIgY2xhc3M9InMxIiBpZD0iJmx0O1BhdGgmZ3Q7Ii8+JiN4YTsJCQkJCTxwYXRoIGQ9Im0xMDcuOCAzNjYuMWMyLjIgMCA0IDEgNCAyLjMgMCAxLjItMS44IDIuMi00IDIuMi0yLjItMC4xLTQtMS4xLTQtMi4zIDAtMS4zIDEuOC0yLjMgNC0yLjJ6IiBjbGFzcz0iczEiIGlkPSImbHQ7UGF0aCZndDsiLz4mI3hhOwkJCQk8L2c+JiN4YTsJCQkJPGcgaWQ9IiZsdDtHcm91cCZndDsiPiYjeGE7CQkJCQk8cGF0aCBkPSJtMzkzLjEgMTkxLjFjLTMuNiAwLTYuNiAxLjYtNi42IDMuNyAwIDAuNyAwLjQgMS41IDEuMSAyLjFsLTM2LjQgMjEtMzcuMiAwLjEtMTM5LjYgODEuNi0wLjQgMC4yLTIuOCAyMi4zLTQ4LjUgMjcuM2MtMS0wLjQtMi4yLTAuNi0zLjQtMC42LTMuNy0wLjEtNi42IDEuNi02LjcgMy42IDAgMi4xIDIuOSAzLjggNi42IDMuOCAzLjYgMC4xIDYuNi0xLjYgNi42LTMuNiAwLTAuOC0wLjQtMS41LTEtMi4xbDQ3LjktMjYuOSAwLjQtMC4zIDIuOC0yMi4zIDEzOC43LTgxIDM3LjItMC4xIDM3LjktMjEuOWMxIDAuMyAyLjEgMC41IDMuNCAwLjYgMy42IDAgNi42LTEuNiA2LjYtMy43IDAtMi0yLjktMy43LTYuNi0zLjh6IiBjbGFzcz0iczE1IiBpZD0iJmx0O1BhdGgmZ3Q7Ii8+JiN4YTsJCQkJCTxwYXRoIGQ9Im0zOTMuMSAxOTIuNmMyLjIgMCA0IDEgNCAyLjMgMCAxLjItMS44IDIuMi00IDIuMi0yLjIgMC00LTEuMS00LTIuMyAwLTEuMyAxLjgtMi4yIDQtMi4yeiIgY2xhc3M9InMxIiBpZD0iJmx0O1BhdGgmZ3Q7Ii8+JiN4YTsJCQkJCTxwYXRoIGQ9Im0xMTkuMyAzNTAuMmMyLjIgMC4xIDMuOSAxLjEgMy45IDIuMyAwIDEuMy0xLjggMi4zLTQgMi4yLTIuMiAwLTQtMS00LTIuMyAwLTEuMiAxLjgtMi4yIDQuMS0yLjJ6IiBjbGFzcz0iczEiIGlkPSImbHQ7UGF0aCZndDsiLz4mI3hhOwkJCQk8L2c+JiN4YTsJCQkJPGcgaWQ9IiZsdDtHcm91cCZndDsiPiYjeGE7CQkJCQk8cGF0aCBkPSJtMzgyLjIgMTU1LjNjLTMuNiAwLTYuNiAxLjYtNi42IDMuNyAwIDAuOCAwLjYgMS43IDEuNSAyLjNsLTI5LjEgMTctMzMuOCAwLjEtMjAyLjcgMTE2LjloLTIxLjJjLTAuNS0xLjgtMy4yLTMuMi02LjQtMy4yLTMuNyAwLTYuNiAxLjYtNi43IDMuNiAwIDIuMSAyLjkgMy44IDYuNiAzLjggMi43IDAuMSA1LjEtMC45IDYuMS0yLjJoMjIuMmwyMDIuNi0xMTYuOSAzMy44LTAuMSAzMC44LTE4cTEuMyAwLjQgMi45IDAuNGMzLjYgMC4xIDYuNi0xLjUgNi42LTMuNiAwLTItMi45LTMuNy02LjYtMy44eiIgY2xhc3M9InMxNiIgaWQ9IiZsdDtQYXRoJmd0OyIvPiYjeGE7CQkJCQk8cGF0aCBkPSJtMzgyLjIgMTU2LjhjMi4yIDAgNCAxIDQgMi4zIDAgMS4yLTEuOCAyLjItNCAyLjItMi4yIDAtNC0xLjEtNC0yLjMgMC0xLjMgMS44LTIuMiA0LTIuMnoiIGNsYXNzPSJzMSIgaWQ9IiZsdDtQYXRoJmd0OyIvPiYjeGE7CQkJCQk8cGF0aCBkPSJtODMuOSAyOTMuNmMyLjIgMCAzLjkgMSAzLjkgMi4zIDAgMS4yLTEuOCAyLjItNCAyLjItMi4yLTAuMS00LTEuMS00LTIuMyAwLTEuMyAxLjgtMi4zIDQuMS0yLjJ6IiBjbGFzcz0iczEiIGlkPSImbHQ7UGF0aCZndDsiLz4mI3hhOwkJCQk8L2c+JiN4YTsJCQkJPGcgaWQ9IiZsdDtHcm91cCZndDsiPiYjeGE7CQkJCQk8cGF0aCBkPSJtNDAxLjkgMjE4LjdjLTMuNiAwLTYuNiAxLjYtNi42IDMuNyAwIDAuOCAwLjQgMS41IDEuMSAyLjFsLTEyLjggNy40cS0wLjktMC4zLTEuOC0wLjNjLTIuMyAwLTQuMSAxLTQuMSAyLjIgMCAxLjMgMS44IDIuMyA0IDIuMyAyLjIgMCA0LTAuOSA0LTIuMnEwLTAuNC0wLjItMC44bDEzLTcuNWMxIDAuMyAyLjEgMC41IDMuMyAwLjYgMy43IDAgNi42LTEuNiA2LjctMy43IDAtMi0zLTMuNy02LjYtMy44eiIgY2xhc3M9InMxNyIgaWQ9IiZsdDtQYXRoJmd0OyIvPiYjeGE7CQkJCQk8cGF0aCBkPSJtNDAxLjkgMjIwLjJjMi4yIDAgNCAxLjEgNCAyLjMtMC4xIDEuMi0xLjkgMi4yLTQuMSAyLjItMi4yIDAtNC0xLjEtMy45LTIuMyAwLTEuMiAxLjgtMi4yIDQtMi4yeiIgY2xhc3M9InMxIiBpZD0iJmx0O1BhdGgmZ3Q7Ii8+JiN4YTsJCQkJPC9nPiYjeGE7CQkJPC9nPiYjeGE7CQkJPGcgaWQ9IiZsdDtHcm91cCZndDsiPiYjeGE7CQkJCTxnIGlkPSImbHQ7R3JvdXAmZ3Q7Ij4mI3hhOwkJCQkJPHBhdGggZD0ibTM2MC4yIDI3Mi43bC0xMDkuOSA2My41di0xNWwxMDkuOS02My41eiIgY2xhc3M9InMxOCIgaWQ9IiZsdDtQYXRoJmd0OyIvPiYjeGE7CQkJCQk8cGF0aCBkPSJtMTQwLjQgMjcyLjdsMTA5LjkgNjMuNXYtMTVsLTEwOS45LTYzLjV6IiBjbGFzcz0iczE5IiBpZD0iJmx0O1BhdGgmZ3Q7Ii8+JiN4YTsJCQkJCTxwYXRoIGQ9Im0zNjAuMiAyNTcuN2wtMTA5LjktNjMuNS0xMDkuOSA2My41IDEwOS45IDYzLjV6IiBjbGFzcz0iczIwIiBpZD0iJmx0O1BhdGgmZ3Q7Ii8+JiN4YTsJCQkJCTxnIGlkPSImbHQ7R3JvdXAmZ3Q7Ij4mI3hhOwkJCQkJCTxwYXRoIGQ9Im0zMzMuNCAyNTkuOGwzLjYtMi4xLTg2LjQtNDkuOS04Ni40IDQ5LjkgMy42IDIuMSA4Mi44LTQ3Ljl6IiBjbGFzcz0iczIxIiBpZD0iJmx0O1BhdGgmZ3Q7Ii8+JiN4YTsJCQkJCQk8cGF0aCBkPSJtMzMzLjQgMjU5LjhsLTgyLjgtNDcuOS04Mi44IDQ3LjkgODIuOCA0Ny44eiIgY2xhc3M9InMyMiIgaWQ9IiZsdDtQYXRoJmd0OyIvPiYjeGE7CQkJCQkJPHBhdGggZD0ibTMzMy40IDI1OS44bC04Mi44LTQ3LjktODIuOCA0Ny45IDgyLjggNDcuOHoiIGNsYXNzPSJzMjMiIGlkPSImbHQ7UGF0aCZndDsiLz4mI3hhOwkJCQkJPC9nPiYjeGE7CQkJCTwvZz4mI3hhOwkJCQk8ZyBzdHlsZT0ib3BhY2l0eTogLjUiIGlkPSImbHQ7R3JvdXAmZ3Q7Ij4mI3hhOwkJCQkJPHBhdGggZD0ibTI1MC42IDIxOC44YzIuMyAwLjEgNC4xIDEuMSA0LjEgMi40IDAgMS4zLTEuOSAyLjMtNC4xIDIuMy0yLjMtMC4xLTQuMS0xLjEtNC4xLTIuNCAwLTEuMyAxLjktMi4zIDQuMS0yLjN6IiBjbGFzcz0iczEiIGlkPSImbHQ7UGF0aCZndDsiLz4mI3hhOwkJCQkJPHBhdGggZD0ibTI2NC4yIDIyNi41YzIuMyAwLjEgNC4xIDEuMSA0LjEgMi40IDAgMS4zLTEuOSAyLjMtNC4yIDIuMy0yLjItMC4xLTQuMS0xLjEtNC4xLTIuNCAwLjEtMS4zIDEuOS0yLjMgNC4yLTIuM3oiIGNsYXNzPSJzMSIgaWQ9IiZsdDtQYXRoJmd0OyIvPiYjeGE7CQkJCQk8ZyBpZD0iJmx0O0dyb3VwJmd0OyI+JiN4YTsJCQkJCQk8cGF0aCBkPSJtMjUwLjYgMjM0LjJjMi4zIDAuMSA0LjEgMS4xIDQuMSAyLjQgMCAxLjMtMS45IDIuMy00LjEgMi4zLTIuMy0wLjEtNC4xLTEuMS00LjEtMi40IDAtMS4zIDEuOS0yLjMgNC4xLTIuM3oiIGNsYXNzPSJzMSIgaWQ9IiZsdDtQYXRoJmd0OyIvPiYjeGE7CQkJCQkJPHBhdGggZD0ibTIzNy40IDIzNC4yYzIuMiAwLjEgNC4xIDEuMSA0LjEgMi40LTAuMSAxLjMtMS45IDIuMy00LjIgMi4zLTIuMy0wLjEtNC4xLTEuMS00LjEtMi40IDAtMS4zIDEuOS0yLjMgNC4yLTIuM3oiIGNsYXNzPSJzMSIgaWQ9IiZsdDtQYXRoJmd0OyIvPiYjeGE7CQkJCQk8L2c+JiN4YTsJCQkJCTxnIGlkPSImbHQ7R3JvdXAmZ3Q7Ij4mI3hhOwkJCQkJCTxwYXRoIGQ9Im0yOTEuMyAyNDEuOWMyLjMgMC4xIDQuMSAxLjEgNC4xIDIuNCAwIDEuMy0xLjkgMi4zLTQuMSAyLjMtMi4zLTAuMS00LjEtMS4xLTQuMS0yLjQgMC0xLjMgMS44LTIuMyA0LjEtMi4zeiIgY2xhc3M9InMxIiBpZD0iJmx0O1BhdGgmZ3Q7Ii8+JiN4YTsJCQkJCQk8cGF0aCBkPSJtMjI0LjEgMjQxLjljMi4zIDAuMSA0LjEgMS4xIDQuMSAyLjQgMCAxLjMtMS45IDIuMy00LjEgMi4zLTIuMy0wLjEtNC4xLTEuMS00LjEtMi40IDAtMS4zIDEuOC0yLjMgNC4xLTIuM3oiIGNsYXNzPSJzMSIgaWQ9IiZsdDtQYXRoJmd0OyIvPiYjeGE7CQkJCQkJPHBhdGggZD0ibTIxMC45IDI0MS45YzIuMiAwLjEgNC4xIDEuMSA0LjEgMi40LTAuMSAxLjMtMS45IDIuMy00LjIgMi4zLTIuMy0wLjEtNC4xLTEuMS00LjEtMi40IDAtMS4zIDEuOS0yLjMgNC4yLTIuM3oiIGNsYXNzPSJzMSIgaWQ9IiZsdDtQYXRoJmd0OyIvPiYjeGE7CQkJCQk8L2c+JiN4YTsJCQkJCTxnIGlkPSImbHQ7R3JvdXAmZ3Q7Ij4mI3hhOwkJCQkJCTxwYXRoIGQ9Im0yNTAuNiAyNDkuNmMyLjMgMC4xIDQuMSAxLjEgNC4xIDIuNCAwIDEuMy0xLjkgMi4zLTQuMSAyLjMtMi4zLTAuMS00LjEtMS4xLTQuMS0yLjQgMC0xLjMgMS45LTIuMyA0LjEtMi4zeiIgY2xhc3M9InMxIiBpZD0iJmx0O1BhdGgmZ3Q7Ii8+JiN4YTsJCQkJCQk8cGF0aCBkPSJtMzA0LjkgMjQ5LjZjLTIuMyAwLTQuMiAxLTQuMiAyLjMgMCAxLjMgMS44IDIuMyA0LjEgMi40IDIuMyAwIDQuMS0xIDQuMi0yLjMgMC0xLjMtMS45LTIuMy00LjEtMi40eiIgY2xhc3M9InMxIiBpZD0iJmx0O1BhdGgmZ3Q7Ii8+JiN4YTsJCQkJCQk8cGF0aCBkPSJtMjM3LjQgMjQ5LjZjMi4yIDAuMSA0LjEgMS4xIDQuMSAyLjQtMC4xIDEuMy0xLjkgMi4zLTQuMiAyLjMtMi4zLTAuMS00LjEtMS4xLTQuMS0yLjQgMC0xLjMgMS45LTIuMyA0LjItMi4zeiIgY2xhc3M9InMxIiBpZD0iJmx0O1BhdGgmZ3Q7Ii8+JiN4YTsJCQkJCQk8cGF0aCBkPSJtMjI0LjEgMjQ5LjZjMi4zIDAuMSA0LjEgMS4xIDQuMSAyLjQgMCAxLjMtMS45IDIuMy00LjEgMi4zLTIuMy0wLjEtNC4xLTEuMS00LjEtMi40IDAtMS4zIDEuOC0yLjMgNC4xLTIuM3oiIGNsYXNzPSJzMSIgaWQ9IiZsdDtQYXRoJmd0OyIvPiYjeGE7CQkJCQkJPHBhdGggZD0ibTE5Ny42IDI0OS42YzIuMyAwLjEgNC4xIDEuMSA0LjEgMi40IDAgMS4zLTEuOSAyLjMtNC4xIDIuMy0yLjMtMC4xLTQuMS0xLjEtNC4xLTIuNCAwLTEuMyAxLjgtMi4zIDQuMS0yLjN6IiBjbGFzcz0iczEiIGlkPSImbHQ7UGF0aCZndDsiLz4mI3hhOwkJCQkJPC9nPiYjeGE7CQkJCQk8ZyBpZD0iJmx0O0dyb3VwJmd0OyI+JiN4YTsJCQkJCQk8cGF0aCBkPSJtMjY0LjIgMjU3LjNjMi4zIDAuMSA0LjEgMS4xIDQuMSAyLjQgMCAxLjMtMS45IDIuMy00LjIgMi4zLTIuMi0wLjEtNC4xLTEuMS00LjEtMi40IDAuMS0xLjMgMS45LTIuMyA0LjItMi4zeiIgY2xhc3M9InMxIiBpZD0iJmx0O1BhdGgmZ3Q7Ii8+JiN4YTsJCQkJCQk8cGF0aCBkPSJtMjc3LjcgMjU3LjNjMi4zIDAuMSA0LjEgMS4xIDQuMSAyLjQgMCAxLjMtMS44IDIuMy00LjEgMi4zLTIuMy0wLjEtNC4xLTEuMS00LjEtMi40IDAtMS4zIDEuOS0yLjMgNC4xLTIuM3oiIGNsYXNzPSJzMSIgaWQ9IiZsdDtQYXRoJmd0OyIvPiYjeGE7CQkJCQkJPHBhdGggZD0ibTI5MS4zIDI1Ny4zYzIuMyAwLjEgNC4xIDEuMSA0LjEgMi40IDAgMS4zLTEuOSAyLjMtNC4xIDIuMy0yLjMtMC4xLTQuMS0xLjEtNC4xLTIuNCAwLTEuMyAxLjgtMi4zIDQuMS0yLjN6IiBjbGFzcz0iczEiIGlkPSImbHQ7UGF0aCZndDsiLz4mI3hhOwkJCQkJCTxwYXRoIGQ9Im0zMTguNCAyNTcuM2MyLjMgMC4xIDQuMSAxLjEgNC4xIDIuNCAwIDEuMy0xLjkgMi4zLTQuMSAyLjMtMi4zLTAuMS00LjEtMS4xLTQuMS0yLjQgMC0xLjMgMS45LTIuMyA0LjEtMi4zeiIgY2xhc3M9InMxIiBpZD0iJmx0O1BhdGgmZ3Q7Ii8+JiN4YTsJCQkJCQk8cGF0aCBkPSJtMTg0LjQgMjU3LjNjMi4yIDAuMSA0LjEgMS4xIDQgMi40IDAgMS4zLTEuOCAyLjMtNC4xIDIuMy0yLjMtMC4xLTQuMS0xLjEtNC4xLTIuNCAwLTEuMyAxLjktMi4zIDQuMi0yLjN6IiBjbGFzcz0iczEiIGlkPSImbHQ7UGF0aCZndDsiLz4mI3hhOwkJCQkJPC9nPiYjeGE7CQkJCQk8ZyBpZD0iJmx0O0dyb3VwJmd0OyI+JiN4YTsJCQkJCQk8cGF0aCBkPSJtMzA0LjkgMjY1YzIuMiAwLjEgNC4xIDEuMSA0LjEgMi40LTAuMSAxLjMtMS45IDIuMy00LjIgMi4zLTIuMy0wLjEtNC4xLTEuMS00LjEtMi40IDAtMS4zIDEuOS0yLjMgNC4yLTIuM3oiIGNsYXNzPSJzMSIgaWQ9IiZsdDtQYXRoJmd0OyIvPiYjeGE7CQkJCQk8L2c+JiN4YTsJCQkJCTxnIGlkPSImbHQ7R3JvdXAmZ3Q7Ij4mI3hhOwkJCQkJCTxwYXRoIGQ9Im0yNTAuNiAyNzIuN2MyLjMgMC4xIDQuMSAxLjEgNC4xIDIuNCAwIDEuMy0xLjkgMi4zLTQuMSAyLjMtMi4zLTAuMS00LjEtMS4xLTQuMS0yLjQgMC0xLjMgMS45LTIuMyA0LjEtMi4zeiIgY2xhc3M9InMxIiBpZD0iJmx0O1BhdGgmZ3Q7Ii8+JiN4YTsJCQkJCQk8cGF0aCBkPSJtMjc3LjcgMjcyLjdjMi4zIDAuMSA0LjEgMS4xIDQuMSAyLjQgMCAxLjMtMS44IDIuMy00LjEgMi4zLTIuMy0wLjEtNC4xLTEuMS00LjEtMi40IDAtMS4zIDEuOS0yLjMgNC4xLTIuM3oiIGNsYXNzPSJzMSIgaWQ9IiZsdDtQYXRoJmd0OyIvPiYjeGE7CQkJCQkJPHBhdGggZD0ibTI5MS4zIDI3Mi43YzIuMyAwLjEgNC4xIDEuMSA0LjEgMi40IDAgMS4zLTEuOSAyLjMtNC4xIDIuMy0yLjMtMC4xLTQuMS0xLjEtNC4xLTIuNCAwLTEuMyAxLjgtMi4zIDQuMS0yLjN6IiBjbGFzcz0iczEiIGlkPSImbHQ7UGF0aCZndDsiLz4mI3hhOwkJCQkJCTxwYXRoIGQ9Im0yMzcuNCAyNzIuN2MyLjIgMC4xIDQuMSAxLjEgNC4xIDIuNC0wLjEgMS4zLTEuOSAyLjMtNC4yIDIuMy0yLjMtMC4xLTQuMS0xLjEtNC4xLTIuNCAwLTEuMyAxLjktMi4zIDQuMi0yLjN6IiBjbGFzcz0iczEiIGlkPSImbHQ7UGF0aCZndDsiLz4mI3hhOwkJCQkJCTxwYXRoIGQ9Im0yMjQuMSAyNzIuN2MyLjMgMC4xIDQuMSAxLjEgNC4xIDIuNCAwIDEuMy0xLjkgMi4zLTQuMSAyLjMtMi4zLTAuMS00LjEtMS4xLTQuMS0yLjQgMC0xLjMgMS44LTIuMyA0LjEtMi4zeiIgY2xhc3M9InMxIiBpZD0iJmx0O1BhdGgmZ3Q7Ii8+JiN4YTsJCQkJCQk8cGF0aCBkPSJtMjEwLjkgMjcyLjdjMi4yIDAuMSA0LjEgMS4xIDQuMSAyLjQtMC4xIDEuMy0xLjkgMi4zLTQuMiAyLjMtMi4zLTAuMS00LjEtMS4xLTQuMS0yLjQgMC0xLjMgMS45LTIuMyA0LjItMi4zeiIgY2xhc3M9InMxIiBpZD0iJmx0O1BhdGgmZ3Q7Ii8+JiN4YTsJCQkJCTwvZz4mI3hhOwkJCQkJPGcgaWQ9IiZsdDtHcm91cCZndDsiPiYjeGE7CQkJCQkJPHBhdGggZD0ibTIzNy40IDI4MC40YzIuMiAwLjEgNC4xIDEuMSA0LjEgMi40LTAuMSAxLjMtMS45IDIuMy00LjIgMi4zLTIuMy0wLjEtNC4xLTEuMS00LjEtMi40IDAtMS4zIDEuOS0yLjMgNC4yLTIuM3oiIGNsYXNzPSJzMSIgaWQ9IiZsdDtQYXRoJmd0OyIvPiYjeGE7CQkJCQk8L2c+JiN4YTsJCQkJCTxnIGlkPSImbHQ7R3JvdXAmZ3Q7Ij4mI3hhOwkJCQkJCTxwYXRoIGQ9Im0yNjQuMiAyODguMWMyLjMgMC4xIDQuMSAxLjEgNC4xIDIuNCAwIDEuMy0xLjkgMi4zLTQuMiAyLjMtMi4yLTAuMS00LjEtMS4xLTQuMS0yLjQgMC4xLTEuMyAxLjktMi4zIDQuMi0yLjN6IiBjbGFzcz0iczEiIGlkPSImbHQ7UGF0aCZndDsiLz4mI3hhOwkJCQkJPC9nPiYjeGE7CQkJCQk8ZyBpZD0iJmx0O0dyb3VwJmd0OyI+JiN4YTsJCQkJCQk8cGF0aCBkPSJtMjUwLjYgMjk1LjhjMi4zIDAuMSA0LjEgMS4xIDQuMSAyLjQgMCAxLjMtMS45IDIuMy00LjEgMi4zLTIuMy0wLjEtNC4xLTEuMS00LjEtMi40IDAtMS4zIDEuOS0yLjMgNC4xLTIuM3oiIGNsYXNzPSJzMSIgaWQ9IiZsdDtQYXRoJmd0OyIvPiYjeGE7CQkJCQk8L2c+JiN4YTsJCQkJPC9nPiYjeGE7CQkJCTxnIHN0eWxlPSJvcGFjaXR5OiAuNyIgaWQ9IiZsdDtHcm91cCZndDsiPiYjeGE7CQkJCQk8cGF0aCBkPSJtMjUwLjYgMTExYy0yLjMgMC00LjEtMS4xLTQuMS0yLjR2MTEyLjZjMCAxLjIgMS44IDIuMyA0LjEgMi4zIDIuMyAwIDQuMS0xLjEgNC4xLTIuM3YtMTEyLjZjMCAxLjMtMS44IDIuNC00LjEgMi40eiIgY2xhc3M9InMyNCIgaWQ9IiZsdDtQYXRoJmd0OyIvPiYjeGE7CQkJCQk8cGF0aCBkPSJtMjUwLjYgMTA2LjNjLTIuMyAwLTQuMSAxLjEtNC4xIDIuMyAwIDEuMyAxLjggMi40IDQuMSAyLjQgMi4zIDAgNC4xLTEuMSA0LjEtMi40IDAtMS4yLTEuOC0yLjMtNC4xLTIuM3oiIGNsYXNzPSJzMjUiIGlkPSImbHQ7UGF0aCZndDsiLz4mI3hhOwkJCQk8L2c+JiN4YTsJCQkJPGcgc3R5bGU9Im9wYWNpdHk6IC43IiBpZD0iJmx0O0dyb3VwJmd0OyI+JiN4YTsJCQkJCTxwYXRoIGQ9Im0yOTEuMyAxMzQuN2MtMi4zIDAtNC4xLTEuMS00LjEtMi4zdjExMS45YzAgMS4yIDEuOCAyLjMgNC4xIDIuMyAyLjIgMCA0LjEtMS4xIDQuMS0yLjN2LTExMS45YzAgMS4yLTEuOSAyLjMtNC4xIDIuM3oiIGNsYXNzPSJzMjYiIGlkPSImbHQ7UGF0aCZndDsiLz4mI3hhOwkJCQkJPHBhdGggZD0ibTI5MS4zIDEzMGMtMi4zIDAtNC4xIDEuMS00LjEgMi40IDAgMS4yIDEuOCAyLjMgNC4xIDIuMyAyLjIgMCA0LjEtMS4xIDQuMS0yLjMgMC0xLjMtMS45LTIuNC00LjEtMi40eiIgY2xhc3M9InMyNyIgaWQ9IiZsdDtQYXRoJmd0OyIvPiYjeGE7CQkJCTwvZz4mI3hhOwkJCQk8ZyBzdHlsZT0ib3BhY2l0eTogLjciIGlkPSImbHQ7R3JvdXAmZ3Q7Ij4mI3hhOwkJCQkJPHBhdGggZD0ibTMwNC44IDE3NC43Yy0yLjIgMC00LjEtMS4xLTQuMS0yLjN2NzkuNmMwIDEuMyAxLjkgMi4zIDQuMSAyLjMgMi4zIDAgNC4xLTEgNC4xLTIuM3YtNzkuNmMwIDEuMi0xLjggMi4zLTQuMSAyLjN6IiBjbGFzcz0iczI4IiBpZD0iJmx0O1BhdGgmZ3Q7Ii8+JiN4YTsJCQkJCTxwYXRoIGQ9Im0zMDQuOCAxNzAuMWMtMi4yIDAtNC4xIDEtNC4xIDIuMyAwIDEuMiAxLjkgMi4zIDQuMSAyLjMgMi4zIDAgNC4xLTEuMSA0LjEtMi4zIDAtMS4zLTEuOC0yLjMtNC4xLTIuM3oiIGNsYXNzPSJzMjkiIGlkPSImbHQ7UGF0aCZndDsiLz4mI3hhOwkJCQk8L2c+JiN4YTsJCQkJPGcgc3R5bGU9Im9wYWNpdHk6IC43IiBpZD0iJmx0O0dyb3VwJmd0OyI+JiN4YTsJCQkJCTxwYXRoIGQ9Im0zMTguNCAxODguNWMtMi4zIDAtNC4xLTEtNC4xLTIuM3Y3My41YzAgMS4zIDEuOCAyLjMgNC4xIDIuMyAyLjMgMCA0LjEtMSA0LjEtMi4zdi03My41YzAgMS4zLTEuOCAyLjMtNC4xIDIuM3oiIGNsYXNzPSJzMzAiIGlkPSImbHQ7UGF0aCZndDsiLz4mI3hhOwkJCQkJPHBhdGggZD0ibTMxOC40IDE4My45Yy0yLjMgMC00LjEgMS00LjEgMi4zIDAgMS4zIDEuOCAyLjMgNC4xIDIuMyAyLjMgMCA0LjEtMSA0LjEtMi4zIDAtMS4zLTEuOC0yLjMtNC4xLTIuM3oiIGNsYXNzPSJzMzEiIGlkPSImbHQ7UGF0aCZndDsiLz4mI3hhOwkJCQk8L2c+JiN4YTsJCQkJPGcgc3R5bGU9Im9wYWNpdHk6IC43IiBpZD0iJmx0O0dyb3VwJmd0OyI+JiN4YTsJCQkJCTxwYXRoIGQ9Im0zMDQuOCAyMTIuMWMtMi4yIDAtNC4xLTEtNC4xLTIuM3Y1Ny42YzAgMS4zIDEuOSAyLjMgNC4xIDIuMyAyLjMgMCA0LjEtMSA0LjEtMi4zdi01Ny42YzAgMS4zLTEuOCAyLjMtNC4xIDIuM3oiIGNsYXNzPSJzMzIiIGlkPSImbHQ7UGF0aCZndDsiLz4mI3hhOwkJCQkJPHBhdGggZD0ibTMwNC44IDIwNy41Yy0yLjIgMC00LjEgMS00LjEgMi4zIDAgMS4zIDEuOSAyLjMgNC4xIDIuMyAyLjMgMCA0LjEtMSA0LjEtMi4zIDAtMS4zLTEuOC0yLjMtNC4xLTIuM3oiIGNsYXNzPSJzMzMiIGlkPSImbHQ7UGF0aCZndDsiLz4mI3hhOwkJCQk8L2c+JiN4YTsJCQkJPGcgc3R5bGU9Im9wYWNpdHk6IC43IiBpZD0iJmx0O0dyb3VwJmd0OyI+JiN4YTsJCQkJCTxwYXRoIGQ9Im0yOTEuMyAxODQuOWMtMi4zIDAtNC4xLTEtNC4xLTIuM3Y3N2MwIDEuMyAxLjggMi40IDQuMSAyLjQgMi4yIDAgNC4xLTEuMSA0LjEtMi40di03N2MwIDEuMy0xLjkgMi4zLTQuMSAyLjN6IiBjbGFzcz0iczM0IiBpZD0iJmx0O1BhdGgmZ3Q7Ii8+JiN4YTsJCQkJCTxwYXRoIGQ9Im0yOTEuMyAxODAuM2MtMi4zIDAtNC4xIDEtNC4xIDIuMyAwIDEuMyAxLjggMi4zIDQuMSAyLjMgMi4yIDAgNC4xLTEgNC4xLTIuMyAwLTEuMy0xLjktMi4zLTQuMS0yLjN6IiBjbGFzcz0iczM1IiBpZD0iJmx0O1BhdGgmZ3Q7Ii8+JiN4YTsJCQkJPC9nPiYjeGE7CQkJCTxnIHN0eWxlPSJvcGFjaXR5OiAuNyIgaWQ9IiZsdDtHcm91cCZndDsiPiYjeGE7CQkJCQk8cGF0aCBkPSJtMjc3LjcgMTQxLjdjLTIuMiAwLTQuMS0xLjEtNC4xLTIuM3Y5OS41YzAgMS4zIDEuOSAyLjMgNC4xIDIuMyAyLjMgMCA0LjEtMSA0LjEtMi4zdi05OS41YzAgMS4yLTEuOCAyLjMtNC4xIDIuM3oiIGNsYXNzPSJzMzYiIGlkPSImbHQ7UGF0aCZndDsiLz4mI3hhOwkJCQkJPHBhdGggZD0ibTI3Ny43IDEzNy4xYy0yLjIgMC00LjEgMS00LjEgMi4zIDAgMS4yIDEuOSAyLjMgNC4xIDIuMyAyLjMgMCA0LjEtMS4xIDQuMS0yLjMgMC0xLjMtMS44LTIuMy00LjEtMi4zeiIgY2xhc3M9InMzNyIgaWQ9IiZsdDtQYXRoJmd0OyIvPiYjeGE7CQkJCTwvZz4mI3hhOwkJCQk8ZyBzdHlsZT0ib3BhY2l0eTogLjciIGlkPSImbHQ7R3JvdXAmZ3Q7Ij4mI3hhOwkJCQkJPHBhdGggZD0ibTIzNy4zIDEyNi4zYy0yLjIgMC00LjEtMS00LjEtMi4zdjExMi42YzAgMS4yIDEuOSAyLjMgNC4xIDIuMyAyLjMgMCA0LjItMS4xIDQuMi0yLjN2LTExMi42YzAgMS4zLTEuOSAyLjMtNC4yIDIuM3oiIGNsYXNzPSJzMzgiIGlkPSImbHQ7UGF0aCZndDsiLz4mI3hhOwkJCQkJPHBhdGggZD0ibTIzNy4zIDEyMS43Yy0yLjIgMC00LjEgMS4xLTQuMSAyLjMgMCAxLjMgMS45IDIuMyA0LjEgMi4zIDIuMyAwIDQuMi0xIDQuMi0yLjMgMC0xLjItMS45LTIuMy00LjItMi4zeiIgY2xhc3M9InMzOSIgaWQ9IiZsdDtQYXRoJmd0OyIvPiYjeGE7CQkJCTwvZz4mI3hhOwkJCQk8ZyBzdHlsZT0ib3BhY2l0eTogLjciIGlkPSImbHQ7R3JvdXAmZ3Q7Ij4mI3hhOwkJCQkJPHBhdGggZD0ibTIzNy4zIDE2MS4zYy0yLjIgMC00LjEtMS00LjEtMi4zdjkzYzAgMS4yIDEuOSAyLjMgNC4xIDIuMyAyLjMgMCA0LjItMS4xIDQuMi0yLjN2LTkzYzAgMS4zLTEuOSAyLjMtNC4yIDIuM3oiIGNsYXNzPSJzNDAiIGlkPSImbHQ7UGF0aCZndDsiLz4mI3hhOwkJCQkJPHBhdGggZD0ibTIzNy4zIDE1Ni43Yy0yLjIgMC00LjEgMS4xLTQuMSAyLjMgMCAxLjMgMS45IDIuMyA0LjEgMi4zIDIuMyAwIDQuMi0xIDQuMi0yLjMgMC0xLjItMS45LTIuMy00LjItMi4zeiIgY2xhc3M9InM0MSIgaWQ9IiZsdDtQYXRoJmd0OyIvPiYjeGE7CQkJCTwvZz4mI3hhOwkJCQk8ZyBzdHlsZT0ib3BhY2l0eTogLjciIGlkPSImbHQ7R3JvdXAmZ3Q7Ij4mI3hhOwkJCQkJPHBhdGggZD0ibTIzNy4zIDE5OC4xYy0yLjIgMC00LjEtMS00LjEtMi4zdjc5LjJjMCAxLjMgMS45IDIuNCA0LjEgMi40IDIuMyAwIDQuMi0xLjEgNC4yLTIuNHYtNzkuMmMwIDEuMy0xLjkgMi4zLTQuMiAyLjN6IiBjbGFzcz0iczQyIiBpZD0iJmx0O1BhdGgmZ3Q7Ii8+JiN4YTsJCQkJCTxwYXRoIGQ9Im0yMzcuMyAxOTMuNWMtMi4yIDAtNC4xIDEuMS00LjEgMi4zIDAgMS4zIDEuOSAyLjMgNC4xIDIuMyAyLjMgMCA0LjItMSA0LjItMi4zIDAtMS4yLTEuOS0yLjMtNC4yLTIuM3oiIGNsYXNzPSJzNDMiIGlkPSImbHQ7UGF0aCZndDsiLz4mI3hhOwkJCQk8L2c+JiN4YTsJCQkJPGcgc3R5bGU9Im9wYWNpdHk6IC43IiBpZD0iJmx0O0dyb3VwJmd0OyI+JiN4YTsJCQkJCTxwYXRoIGQ9Im0yMzcuMyAyMzAuN2MtMi4yIDAtNC4xLTEuMS00LjEtMi40djU0LjRjMCAxLjMgMS45IDIuNCA0LjEgMi40IDIuMyAwIDQuMi0xLjEgNC4yLTIuNHYtNTQuNGMwIDEuMy0xLjkgMi40LTQuMiAyLjR6IiBjbGFzcz0iczQ0IiBpZD0iJmx0O1BhdGgmZ3Q7Ii8+JiN4YTsJCQkJCTxwYXRoIGQ9Im0yMzcuMyAyMjZjLTIuMiAwLTQuMSAxLjEtNC4xIDIuMyAwIDEuMyAxLjkgMi40IDQuMSAyLjQgMi4zIDAgNC4yLTEuMSA0LjItMi40IDAtMS4yLTEuOS0yLjMtNC4yLTIuM3oiIGNsYXNzPSJzNDUiIGlkPSImbHQ7UGF0aCZndDsiLz4mI3hhOwkJCQk8L2c+JiN4YTsJCQkJPGcgc3R5bGU9Im9wYWNpdHk6IC43IiBpZD0iJmx0O0dyb3VwJmd0OyI+JiN4YTsJCQkJCTxwYXRoIGQ9Im0yMTAuOCAxMzRjLTIuMiAwLTQuMS0xLTQuMS0yLjN2MTEyLjZjMCAxLjIgMS45IDIuMyA0LjEgMi4zIDIuMyAwIDQuMS0xLjEgNC4xLTIuM3YtMTEyLjZjMCAxLjMtMS44IDIuMy00LjEgMi4zeiIgY2xhc3M9InM0NiIgaWQ9IiZsdDtQYXRoJmd0OyIvPiYjeGE7CQkJCQk8cGF0aCBkPSJtMjEwLjggMTI5LjRjLTIuMiAwLTQuMSAxLjEtNC4xIDIuMyAwIDEuMyAxLjkgMi4zIDQuMSAyLjMgMi4zIDAgNC4xLTEgNC4xLTIuMyAwLTEuMi0xLjgtMi4zLTQuMS0yLjN6IiBjbGFzcz0iczQ3IiBpZD0iJmx0O1BhdGgmZ3Q7Ii8+JiN4YTsJCQkJPC9nPiYjeGE7CQkJCTxnIHN0eWxlPSJvcGFjaXR5OiAuNyIgaWQ9IiZsdDtHcm91cCZndDsiPiYjeGE7CQkJCQk8cGF0aCBkPSJtMjEwLjggMjA4LjhjLTIuMiAwLTQuMS0xLjEtNC4xLTIuNHY2OC42YzAgMS4zIDEuOSAyLjQgNC4xIDIuNCAyLjMgMCA0LjEtMS4xIDQuMS0yLjR2LTY4LjZjMCAxLjMtMS44IDIuNC00LjEgMi40eiIgY2xhc3M9InM0OCIgaWQ9IiZsdDtQYXRoJmd0OyIvPiYjeGE7CQkJCQk8cGF0aCBkPSJtMjEwLjggMjA0LjFjLTIuMiAwLTQuMSAxLjEtNC4xIDIuMyAwIDEuMyAxLjkgMi40IDQuMSAyLjQgMi4zIDAgNC4xLTEuMSA0LjEtMi40IDAtMS4yLTEuOC0yLjMtNC4xLTIuM3oiIGNsYXNzPSJzNDkiIGlkPSImbHQ7UGF0aCZndDsiLz4mI3hhOwkJCQk8L2c+JiN4YTsJCQkJPGcgc3R5bGU9Im9wYWNpdHk6IC43IiBpZD0iJmx0O0dyb3VwJmd0OyI+JiN4YTsJCQkJCTxwYXRoIGQ9Im0xODQuMyAxODUuM2MtMi4yIDAtNC4xLTEtNC4xLTIuM3Y3Ni43YzAgMS4zIDEuOSAyLjMgNC4xIDIuMyAyLjMgMCA0LjEtMSA0LjEtMi4zdi03Ni43YzAgMS4zLTEuOCAyLjMtNC4xIDIuM3oiIGNsYXNzPSJzNTAiIGlkPSImbHQ7UGF0aCZndDsiLz4mI3hhOwkJCQkJPHBhdGggZD0ibTE4NC4zIDE4MC43Yy0yLjIgMC00LjEgMS00LjEgMi4zIDAgMS4zIDEuOSAyLjMgNC4xIDIuMyAyLjMgMCA0LjEtMSA0LjEtMi4zIDAtMS4zLTEuOC0yLjMtNC4xLTIuM3oiIGNsYXNzPSJzNTEiIGlkPSImbHQ7UGF0aCZndDsiLz4mI3hhOwkJCQk8L2c+JiN4YTsJCQkJPGcgc3R5bGU9Im9wYWNpdHk6IC43IiBpZD0iJmx0O0dyb3VwJmd0OyI+JiN4YTsJCQkJCTxwYXRoIGQ9Im0xOTcuNiAxNTUuM2MtMi4zIDAtNC4xLTEuMS00LjEtMi4zdjk5YzAgMS4yIDEuOCAyLjMgNC4xIDIuMyAyLjMgMCA0LjEtMS4xIDQuMS0yLjN2LTk5YzAgMS4yLTEuOCAyLjMtNC4xIDIuM3oiIGNsYXNzPSJzNTIiIGlkPSImbHQ7UGF0aCZndDsiLz4mI3hhOwkJCQkJPHBhdGggZD0ibTE5Ny42IDE1MC43Yy0yLjMgMC00LjEgMS00LjEgMi4zIDAgMS4yIDEuOCAyLjMgNC4xIDIuMyAyLjMgMCA0LjEtMS4xIDQuMS0yLjMgMC0xLjMtMS44LTIuMy00LjEtMi4zeiIgY2xhc3M9InM1MyIgaWQ9IiZsdDtQYXRoJmd0OyIvPiYjeGE7CQkJCTwvZz4mI3hhOwkJCQk8ZyBzdHlsZT0ib3BhY2l0eTogLjciIGlkPSImbHQ7R3JvdXAmZ3Q7Ij4mI3hhOwkJCQkJPHBhdGggZD0ibTIyNC4xIDE1Mi43Yy0yLjMgMC00LjEtMS00LjEtMi4zdjkzLjljMCAxLjIgMS44IDIuMyA0LjEgMi4zIDIuMyAwIDQuMS0xLjEgNC4xLTIuM3YtOTMuOWMwIDEuMy0xLjggMi4zLTQuMSAyLjN6IiBjbGFzcz0iczU0IiBpZD0iJmx0O1BhdGgmZ3Q7Ii8+JiN4YTsJCQkJCTxwYXRoIGQ9Im0yMjQuMSAxNDguMWMtMi4zIDAtNC4xIDEtNC4xIDIuMyAwIDEuMyAxLjggMi4zIDQuMSAyLjMgMi4zIDAgNC4xLTEgNC4xLTIuMyAwLTEuMy0xLjgtMi4zLTQuMS0yLjN6IiBjbGFzcz0iczU1IiBpZD0iJmx0O1BhdGgmZ3Q7Ii8+JiN4YTsJCQkJPC9nPiYjeGE7CQkJCTxnIHN0eWxlPSJvcGFjaXR5OiAuNyIgaWQ9IiZsdDtHcm91cCZndDsiPiYjeGE7CQkJCQk8cGF0aCBkPSJtMjY0LjIgMTI1LjFjLTIuMyAwLTQuMS0xLTQuMS0yLjN2MTA2LjFjMCAxLjMgMS44IDIuMyA0LjEgMi4zIDIuMiAwIDQuMS0xIDQuMS0yLjN2LTEwNi4xYzAgMS4zLTEuOSAyLjMtNC4xIDIuM3oiIGNsYXNzPSJzNTYiIGlkPSImbHQ7UGF0aCZndDsiLz4mI3hhOwkJCQkJPHBhdGggZD0ibTI2NC4yIDEyMC41Yy0yLjMgMC00LjEgMS00LjEgMi4zIDAgMS4zIDEuOCAyLjMgNC4xIDIuMyAyLjIgMCA0LjEtMSA0LjEtMi4zIDAtMS4zLTEuOS0yLjMtNC4xLTIuM3oiIGNsYXNzPSJzNTciIGlkPSImbHQ7UGF0aCZndDsiLz4mI3hhOwkJCQk8L2c+JiN4YTsJCQkJPGcgc3R5bGU9Im9wYWNpdHk6IC43IiBpZD0iJmx0O0dyb3VwJmd0OyI+JiN4YTsJCQkJCTxwYXRoIGQ9Im0yNjQuMiAxODYuM2MtMi4zIDAtNC4xLTEtNC4xLTIuM3Y3NS44YzAgMS4yIDEuOCAyLjMgNC4xIDIuMyAyLjIgMCA0LjEtMS4xIDQuMS0yLjN2LTc1LjhjMCAxLjMtMS45IDIuMy00LjEgMi4zeiIgY2xhc3M9InM1OCIgaWQ9IiZsdDtQYXRoJmd0OyIvPiYjeGE7CQkJCQk8cGF0aCBkPSJtMjY0LjIgMTgxLjdjLTIuMyAwLTQuMSAxLTQuMSAyLjMgMCAxLjMgMS44IDIuMyA0LjEgMi4zIDIuMiAwIDQuMS0xIDQuMS0yLjMgMC0xLjMtMS45LTIuMy00LjEtMi4zeiIgY2xhc3M9InM1OSIgaWQ9IiZsdDtQYXRoJmd0OyIvPiYjeGE7CQkJCTwvZz4mI3hhOwkJCQk8ZyBzdHlsZT0ib3BhY2l0eTogLjciIGlkPSImbHQ7R3JvdXAmZ3Q7Ij4mI3hhOwkJCQkJPHBhdGggZD0ibTI2NC4yIDI0Ny4yYy0yLjMgMC00LjEtMS4xLTQuMS0yLjN2NDUuNWMwIDEuMyAxLjggMi40IDQuMSAyLjQgMi4yIDAgNC4xLTEuMSA0LjEtMi40di00NS41YzAgMS4yLTEuOSAyLjMtNC4xIDIuM3oiIGNsYXNzPSJzNjAiIGlkPSImbHQ7UGF0aCZndDsiLz4mI3hhOwkJCQkJPHBhdGggZD0ibTI2NC4yIDI0Mi41Yy0yLjMgMC00LjEgMS4xLTQuMSAyLjQgMCAxLjIgMS44IDIuMyA0LjEgMi4zIDIuMiAwIDQuMS0xLjEgNC4xLTIuMyAwLTEuMy0xLjktMi40LTQuMS0yLjR6IiBjbGFzcz0iczYxIiBpZD0iJmx0O1BhdGgmZ3Q7Ii8+JiN4YTsJCQkJPC9nPiYjeGE7CQkJCTxnIHN0eWxlPSJvcGFjaXR5OiAuNyIgaWQ9IiZsdDtHcm91cCZndDsiPiYjeGE7CQkJCQk8cGF0aCBkPSJtMjc3LjcgMTY0LjRjLTIuMiAwLTQuMS0xLTQuMS0yLjN2OTcuNmMwIDEuMyAxLjkgMi4zIDQuMSAyLjMgMi4zIDAgNC4xLTEgNC4xLTIuM3YtOTcuNmMwIDEuMy0xLjggMi4zLTQuMSAyLjN6IiBjbGFzcz0iczYyIiBpZD0iJmx0O1BhdGgmZ3Q7Ii8+JiN4YTsJCQkJCTxwYXRoIGQ9Im0yNzcuNyAxNTkuOGMtMi4yIDAtNC4xIDEtNC4xIDIuMyAwIDEuMyAxLjkgMi4zIDQuMSAyLjMgMi4zIDAgNC4xLTEgNC4xLTIuMyAwLTEuMy0xLjgtMi4zLTQuMS0yLjN6IiBjbGFzcz0iczYzIiBpZD0iJmx0O1BhdGgmZ3Q7Ii8+JiN4YTsJCQkJPC9nPiYjeGE7CQkJCTxnIHN0eWxlPSJvcGFjaXR5OiAuNyIgaWQ9IiZsdDtHcm91cCZndDsiPiYjeGE7CQkJCQk8cGF0aCBkPSJtMjc3LjcgMjE4LjVjLTIuMiAwLTQuMS0xLTQuMS0yLjN2NTguOGMwIDEuMyAxLjkgMi40IDQuMSAyLjQgMi4zIDAgNC4xLTEuMSA0LjEtMi40di01OC44YzAgMS4zLTEuOCAyLjMtNC4xIDIuM3oiIGNsYXNzPSJzNjQiIGlkPSImbHQ7UGF0aCZndDsiLz4mI3hhOwkJCQkJPHBhdGggZD0ibTI3Ny43IDIxMy45Yy0yLjIgMC00LjEgMS4xLTQuMSAyLjMgMCAxLjMgMS45IDIuMyA0LjEgMi4zIDIuMyAwIDQuMS0xIDQuMS0yLjMgMC0xLjItMS44LTIuMy00LjEtMi4zeiIgY2xhc3M9InM2NSIgaWQ9IiZsdDtQYXRoJmd0OyIvPiYjeGE7CQkJCTwvZz4mI3hhOwkJCQk8ZyBzdHlsZT0ib3BhY2l0eTogLjciIGlkPSImbHQ7R3JvdXAmZ3Q7Ij4mI3hhOwkJCQkJPHBhdGggZD0ibTIyNC4xIDE3NmMtMi4zIDAtNC4xLTEtNC4xLTIuM3Y3OC4zYzAgMS4yIDEuOCAyLjMgNC4xIDIuMyAyLjMgMCA0LjEtMS4xIDQuMS0yLjN2LTc4LjNjMCAxLjMtMS44IDIuMy00LjEgMi4zeiIgY2xhc3M9InM2NiIgaWQ9IiZsdDtQYXRoJmd0OyIvPiYjeGE7CQkJCQk8cGF0aCBkPSJtMjI0LjEgMTcxLjRjLTIuMyAwLTQuMSAxLTQuMSAyLjMgMCAxLjMgMS44IDIuMyA0LjEgMi4zIDIuMyAwIDQuMS0xIDQuMS0yLjMgMC0xLjMtMS44LTIuMy00LjEtMi4zeiIgY2xhc3M9InM2NyIgaWQ9IiZsdDtQYXRoJmd0OyIvPiYjeGE7CQkJCTwvZz4mI3hhOwkJCQk8ZyBzdHlsZT0ib3BhY2l0eTogLjciIGlkPSImbHQ7R3JvdXAmZ3Q7Ij4mI3hhOwkJCQkJPHBhdGggZD0ibTIyNC4xIDE4Ny42Yy0yLjMgMC00LjEtMS00LjEtMi4zdjg5LjdjMCAxLjMgMS44IDIuNCA0LjEgMi40IDIuMyAwIDQuMS0xLjEgNC4xLTIuNHYtODkuN2MwIDEuMy0xLjggMi4zLTQuMSAyLjN6IiBjbGFzcz0iczY4IiBpZD0iJmx0O1BhdGgmZ3Q7Ii8+JiN4YTsJCQkJCTxwYXRoIGQ9Im0yMjQuMSAxODNjLTIuMyAwLTQuMSAxLTQuMSAyLjMgMCAxLjMgMS44IDIuMyA0LjEgMi4zIDIuMyAwIDQuMS0xIDQuMS0yLjMgMC0xLjMtMS44LTIuMy00LjEtMi4zeiIgY2xhc3M9InM2OSIgaWQ9IiZsdDtQYXRoJmd0OyIvPiYjeGE7CQkJCTwvZz4mI3hhOwkJCQk8ZyBzdHlsZT0ib3BhY2l0eTogLjciIGlkPSImbHQ7R3JvdXAmZ3Q7Ij4mI3hhOwkJCQkJPHBhdGggZD0ibTI1MC42IDE0NC41Yy0yLjMgMC00LjEtMS00LjEtMi4zdjk0LjRjMCAxLjMgMS44IDIuMyA0LjEgMi4zIDIuMyAwIDQuMS0xIDQuMS0yLjN2LTk0LjRjMCAxLjMtMS44IDIuMy00LjEgMi4zeiIgY2xhc3M9InM3MCIgaWQ9IiZsdDtQYXRoJmd0OyIvPiYjeGE7CQkJCQk8cGF0aCBkPSJtMjUwLjYgMTM5LjljLTIuMyAwLTQuMSAxLjEtNC4xIDIuMyAwIDEuMyAxLjggMi4zIDQuMSAyLjMgMi4zIDAgNC4xLTEgNC4xLTIuMyAwLTEuMi0xLjgtMi4zLTQuMS0yLjN6IiBjbGFzcz0iczcxIiBpZD0iJmx0O1BhdGgmZ3Q7Ii8+JiN4YTsJCQkJPC9nPiYjeGE7CQkJCTxnIHN0eWxlPSJvcGFjaXR5OiAuNyIgaWQ9IiZsdDtHcm91cCZndDsiPiYjeGE7CQkJCQk8cGF0aCBkPSJtMjUwLjYgMTU5LjdjLTIuMyAwLTQuMS0xLTQuMS0yLjN2OTQuNGMwIDEuMyAxLjggMi4zIDQuMSAyLjMgMi4zIDAgNC4xLTEgNC4xLTIuM3YtOTQuNGMwIDEuMy0xLjggMi4zLTQuMSAyLjN6IiBjbGFzcz0iczcyIiBpZD0iJmx0O1BhdGgmZ3Q7Ii8+JiN4YTsJCQkJCTxwYXRoIGQ9Im0yNTAuNiAxNTUuMWMtMi4zIDAtNC4xIDEuMS00LjEgMi4zIDAgMS4zIDEuOCAyLjMgNC4xIDIuMyAyLjMgMCA0LjEtMSA0LjEtMi4zIDAtMS4yLTEuOC0yLjMtNC4xLTIuM3oiIGNsYXNzPSJzNzMiIGlkPSImbHQ7UGF0aCZndDsiLz4mI3hhOwkJCQk8L2c+JiN4YTsJCQkJPGcgc3R5bGU9Im9wYWNpdHk6IC43IiBpZD0iJmx0O0dyb3VwJmd0OyI+JiN4YTsJCQkJCTxwYXRoIGQ9Im0yNTAuNiAxODNjLTIuMyAwLTQuMS0xLjEtNC4xLTIuM3Y5NC4zYzAgMS4zIDEuOCAyLjQgNC4xIDIuNCAyLjMgMCA0LjEtMS4xIDQuMS0yLjR2LTk0LjNjMCAxLjItMS44IDIuMy00LjEgMi4zeiIgY2xhc3M9InM3NCIgaWQ9IiZsdDtQYXRoJmd0OyIvPiYjeGE7CQkJCQk8cGF0aCBkPSJtMjUwLjYgMTc4LjRjLTIuMyAwLTQuMSAxLTQuMSAyLjMgMCAxLjIgMS44IDIuMyA0LjEgMi4zIDIuMyAwIDQuMS0xLjEgNC4xLTIuMyAwLTEuMy0xLjgtMi4zLTQuMS0yLjN6IiBjbGFzcz0iczc1IiBpZD0iJmx0O1BhdGgmZ3Q7Ii8+JiN4YTsJCQkJPC9nPiYjeGE7CQkJCTxnIHN0eWxlPSJvcGFjaXR5OiAuNyIgaWQ9IiZsdDtHcm91cCZndDsiPiYjeGE7CQkJCQk8cGF0aCBkPSJtMjUwLjYgMjYyLjdjLTIuMyAwLTQuMS0xLTQuMS0yLjN2MzcuN2MwIDEuMyAxLjggMi4zIDQuMSAyLjMgMi4zIDAgNC4xLTEgNC4xLTIuM3YtMzcuN2MwIDEuMy0xLjggMi4zLTQuMSAyLjN6IiBjbGFzcz0iczc2IiBpZD0iJmx0O1BhdGgmZ3Q7Ii8+JiN4YTsJCQkJCTxwYXRoIGQ9Im0yNTAuNiAyNTguMWMtMi4zIDAtNC4xIDEtNC4xIDIuMyAwIDEuMyAxLjggMi4zIDQuMSAyLjMgMi4zIDAgNC4xLTEgNC4xLTIuMyAwLTEuMy0xLjgtMi4zLTQuMS0yLjN6IiBjbGFzcz0iczc3IiBpZD0iJmx0O1BhdGgmZ3Q7Ii8+JiN4YTsJCQkJPC9nPiYjeGE7CQkJCTxnIHN0eWxlPSJvcGFjaXR5OiAuNyIgaWQ9IiZsdDtHcm91cCZndDsiPiYjeGE7CQkJCQk8cGF0aCBkPSJtMjkxLjMgMjM4LjVjLTIuMyAwLTQuMS0xLTQuMS0yLjN2MzguOWMwIDEuMyAxLjggMi4zIDQuMSAyLjMgMi4yIDAgNC4xLTEgNC4xLTIuM3YtMzguOWMwIDEuMy0xLjkgMi4zLTQuMSAyLjN6IiBjbGFzcz0iczc4IiBpZD0iJmx0O1BhdGgmZ3Q7Ii8+JiN4YTsJCQkJCTxwYXRoIGQ9Im0yOTEuMyAyMzMuOWMtMi4zIDAtNC4xIDEuMS00LjEgMi4zIDAgMS4zIDEuOCAyLjMgNC4xIDIuMyAyLjIgMCA0LjEtMSA0LjEtMi4zIDAtMS4yLTEuOS0yLjMtNC4xLTIuM3oiIGNsYXNzPSJzNzkiIGlkPSImbHQ7UGF0aCZndDsiLz4mI3hhOwkJCQk8L2c+JiN4YTsJCQk8L2c+JiN4YTsJCTwvZz4mI3hhOwk8L2c+JiN4YTs8L3N2Zz4=;" parent="1" vertex="1">
          <mxGeometry x="547.5" y="1245.0033333333336" width="500" height="500" as="geometry" />
        </mxCell>
      </root>
    </mxGraphModel>
  </diagram>
</mxfile>
